<?xml version="1.0" encoding="utf-8"?>
<!-- Generator: Adobe Illustrator 25.4.1, SVG Export Plug-In . SVG Version: 6.00 Build 0)  -->
<svg version="1.1" id="Layer_1" xmlns="http://www.w3.org/2000/svg" xmlns:xlink="http://www.w3.org/1999/xlink" x="0px" y="0px"
	 viewBox="0 0 705.4 152.8" style="enable-background:new 0 0 705.4 152.8;" xml:space="preserve">
<style type="text/css">
	.st0{fill:#124E91;}
	.st1{fill:#ED1C24;}
	.st2{fill:#76BCE8;}
	.st3{fill:#FFFFFF;}
</style>
<path class="st0" d="M166.3,81.6c-4.6,0.1-9.2-1-13.4-3.1l1-6.6c3.7,2.5,8,3.9,12.5,4.1c5,0,8.5-2.6,8.5-7.3c0-4.3-1.9-6.2-9.1-9.4
	c-9-4.1-12.4-7-12.4-13.9c0-7.7,5.9-12.6,14.5-12.6c3.8-0.1,7.5,0.8,10.9,2.7l-1,6.5c-2.9-2.2-6.4-3.4-10-3.5
	c-5.5,0-7.9,2.9-7.9,6.4s1.8,5.4,9.1,8.7c9.3,4.2,12.4,7.4,12.4,14.6C181.3,76.4,175.2,81.6,166.3,81.6z"/>
<path class="st0" d="M206.6,81l-0.7-4.4c-3,3.3-7.2,5.1-11.6,5.1c-6,0-9.7-3.9-9.7-9.5c0-8.2,5.9-11.6,20.8-11.9v-2.1
	c0-4.2-2.5-5.6-6.3-5.6c-4,0.1-7.8,1.1-11.4,2.8l-0.8-5.3c4-1.8,8.4-2.7,12.8-2.8c8,0,11.9,3.2,11.9,10.6V81H206.6z M205.4,65
	c-12.8,0.4-14.7,3.5-14.7,6.9c-0.1,2.5,1.8,4.6,4.3,4.8c0.2,0,0.4,0,0.6,0c3.8-0.2,7.3-1.8,9.8-4.6L205.4,65z"/>
<path class="st0" d="M446.5,81l-0.7-4.4c-3,3.3-7.2,5.1-11.6,5.1c-6,0-9.7-3.9-9.7-9.5c0-8.2,5.9-11.6,20.8-11.9v-2.1
	c0-4.2-2.5-5.6-6.3-5.6c-4,0.1-7.8,1.1-11.4,2.8l-0.8-5.3c4-1.8,8.4-2.7,12.8-2.8c8,0,11.9,3.2,11.9,10.6V81H446.5z M445.4,65
	c-12.8,0.4-14.7,3.5-14.7,6.9c-0.1,2.5,1.8,4.6,4.3,4.8c0.2,0,0.4,0,0.6,0c3.8-0.2,7.3-1.8,9.8-4.6V65z"/>
<path class="st0" d="M231.1,81.7c-8.9,0-15.4-6.2-15.4-17.2c0-11.3,6.9-17.2,15.5-17.2c4.8,0,8.3,1.2,10.8,3l-0.9,6
	c-2.8-2.4-6.3-3.7-10-3.7c-5.4,0-9.2,4.1-9.2,11.8c0,8,4.1,11.8,9.9,11.8c3.6,0.1,7-1.2,9.6-3.7l0.9,5.5
	C239.1,80.6,235.1,81.9,231.1,81.7z"/>
<path class="st0" d="M264.2,53.2c-5.2-0.1-8.9,3.3-11.1,7.7V81H247V48h4.9l1,6.1c2.4-3.7,6.3-6.8,11.2-6.8c0.8,0,1.6,0,2.4,0.2
	l-0.7,5.8C265.2,53.3,264.7,53.2,264.2,53.2z"/>
<path class="st0" d="M474.2,53.2c-5.2-0.1-8.9,3.3-11.1,7.7V81h-6.1V48h4.9l1,6.1c2.4-3.7,6.3-6.8,11.2-6.8c0.8,0,1.6,0,2.4,0.2
	l-0.7,5.8C475.1,53.3,474.6,53.2,474.2,53.2z"/>
<path class="st0" d="M282.2,81.7c-8.6,0-15.3-5.2-15.3-17.3c0-10.6,6.2-17.1,14.5-17.1c9.6,0,14,7.4,14,16.5v1.3H273
	c0.2,7.7,3.9,11.3,9.6,11.3c4.8,0,7.2-2,10.8-4.8l0.8,5.2C290.7,79.6,287.6,81.7,282.2,81.7L282.2,81.7z M273.3,60.5h15.9
	c-0.8-5.3-3.1-8.4-7.9-8.4C277.5,52.2,274.3,54.9,273.3,60.5z"/>
<path class="st0" d="M408.5,81.7c-8.6,0-15.3-5.2-15.3-17.3c0-10.6,6.2-17.1,14.5-17.1c9.6,0,14,7.4,14,16.5v1.3h-22.4
	c0.2,7.7,3.9,11.3,9.6,11.3c4.8,0,7.2-2,10.8-4.8l0.8,5.2C417,79.6,413.9,81.7,408.5,81.7L408.5,81.7z M399.6,60.5h15.9
	c-0.8-5.3-3.1-8.4-7.9-8.4C403.8,52.2,400.6,54.9,399.6,60.5z"/>
<path class="st0" d="M629.9,81.7c-8.6,0-15.3-5.2-15.3-17.3c0-10.6,6.2-17.1,14.5-17.1c9.6,0,14,7.4,14,16.5v1.3h-22.4
	c0.2,7.7,3.9,11.3,9.6,11.3c4.8,0,7.2-2,10.8-4.8l0.8,5.2C638.4,79.6,635.3,81.7,629.9,81.7L629.9,81.7z M621,60.5h15.9
	c-0.8-5.3-3.1-8.4-7.9-8.4C625.2,52.2,622,54.9,621,60.5z"/>
<path class="st0" d="M692.1,81.7c-8.6,0-15.3-5.2-15.3-17.3c0-10.6,6.2-17.1,14.5-17.1c9.6,0,14,7.4,14,16.5v1.3H683
	c0.2,7.7,3.9,11.3,9.6,11.3c4.8,0,7.2-2,10.8-4.8l0.8,5.2C700.7,79.6,697.6,81.7,692.1,81.7z M683.3,60.5h15.9
	c-0.8-5.3-3.1-8.4-7.9-8.4C687.5,52.2,684.2,54.9,683.3,60.5z"/>
<path class="st0" d="M323.6,81l-0.8-4.8c-2.5,3-5.9,5.5-10.7,5.5c-7.1,0-13-5.2-13-16.2c0-12,6.9-17.8,14.9-17.8
	c2.8,0,5.6,0.5,8.3,1.5V32.4l6.2-1.3V81H323.6z M322.4,54.7c-2.5-1.3-5.3-2-8.1-1.9c-5.2,0-8.9,4.2-8.9,12.4
	c0,7.3,3.2,11.1,7.7,11.1c3.8,0,6.7-2.3,9.3-5.8L322.4,54.7z"/>
<path class="st0" d="M381.8,81V59h-24.1v22h-6.5V33.3h6.5v19.8h24.1V33.3h6.5V81H381.8z"/>
<path class="st0" d="M493.3,81.6c-5.8,0-9.6-2.1-9.6-8.7V53.2h-5V48h5V37.4l6-1.2V48h7.1l0.8,5.2h-8v18.6c0,2.7,1.1,4.4,4.6,4.4
	c1,0,1.9-0.1,2.8-0.2l0.8,5.3C496.4,81.4,494.9,81.6,493.3,81.6L493.3,81.6z"/>
<path class="st0" d="M537.8,81.9c-13.4,0-22.1-10-22.1-24.7s8.8-24.8,22.2-24.8c4.8-0.1,9.6,1.2,13.6,3.9l-1,6.6
	c-3.6-2.9-8-4.6-12.7-4.6c-9.7,0-15.4,7.3-15.4,18.8s5.8,18.7,15.4,18.7c4.9-0.1,9.6-1.8,13.4-4.8l1,6.2
	C548,80.3,543,81.9,537.8,81.9L537.8,81.9z"/>
<path class="st0" d="M570.4,81.7c-8.8,0-15.1-6.3-15.1-17.2s6.4-17.2,15.1-17.2s15.3,6.4,15.3,17.2S579.3,81.7,570.4,81.7z
	 M570.4,52.5c-6,0-8.9,5.1-8.9,12s3.1,12,8.9,12c6.1,0,9.1-5.1,9.1-12C579.6,57.8,576.4,52.5,570.4,52.5z"/>
<path class="st0" d="M590.6,81V32.4l6.2-1.3V81H590.6z"/>
<path class="st0" d="M603.7,81V32.4l6.2-1.3V81H603.7z"/>
<path class="st0" d="M659.6,93.6c-8.6,0-15.4-2.7-15.4-8.5c0-3.4,2.3-6,7-8.5c-1.2-0.7-2-2-2.1-3.4c0-1.6,1.2-3.1,3.5-4.5
	c-3.8-1.8-6.2-5.6-6.2-9.8c0-7.1,6-11.5,12.7-11.5c3.1,0,6.1,1,8.5,2.8l8.4-2.6l0.9,5.5l-6.3,0.6c0.9,1.6,1.3,3.3,1.3,5.1
	c0,7.1-5.9,11.3-12.7,11.3c-0.8,0-1.7-0.1-2.5-0.2c-1,0.6-1.7,1.4-1.7,2c0,1.2,1.2,1.4,7,2.5l2.3,0.4c7,1.2,11.3,3.5,11.3,8.6
	C675.7,90.3,668.2,93.6,659.6,93.6L659.6,93.6z M655.6,78.4c-3.8,1.9-5.5,3.9-5.5,6.2c0,2.6,3.4,4.6,9.8,4.6s10-2.2,10-5
	c0-2-1.5-3.4-6.2-4.2l-3.9-0.7C658,78.9,656.9,78.8,655.6,78.4L655.6,78.4z M659.1,51.8c-4.2,0-6.7,3.2-6.7,7.2
	c-0.2,3.6,2.6,6.6,6.2,6.8c0.2,0,0.3,0,0.5,0c4.2,0,6.8-3.1,6.8-7.1c0.2-3.7-2.7-6.7-6.3-6.9C659.4,51.8,659.2,51.8,659.1,51.8
	L659.1,51.8z"/>
<path class="st0" d="M162.7,96.6h2.6L175,119l-2.4,0.5l-3.2-7.5h-10.9l-3,7.3H153L162.7,96.6z M159.4,110h9.1L164,99.2L159.4,110z"
	/>
<path class="st0" d="M186.5,119.6c-5.8,0-9.3-3.5-9.3-8.8V96.7h2.5v13.8c0,4.2,2.3,7,6.8,7s6.9-2.6,6.9-6.9V96.7h2.5v13.9
	C195.9,116.1,192.4,119.6,186.5,119.6L186.5,119.6z"/>
<path class="st0" d="M211.5,119.6c-6.7,0-11.2-4.7-11.2-11.7s4.6-11.7,11.4-11.7c2.5,0,4.9,0.6,7,1.9l-0.4,2.3
	c-1.9-1.4-4.2-2.1-6.6-2.2c-5.5,0-8.8,3.9-8.8,9.6s3.4,9.7,8.8,9.7c2.5,0,5-0.9,7.1-2.3l0.4,2.2
	C216.8,118.9,214.2,119.6,211.5,119.6z"/>
<path class="st0" d="M238.4,119.4l-12.6-11.8v11.6h-2.5V96.7h2.5V107l11.5-10.2h3.2l-11.9,10.5l12.6,11.7L238.4,119.4z"/>
<path class="st0" d="M244.4,119.2V96.7h2.5v20.5h9.6l0.4,2L244.4,119.2z"/>
<path class="st0" d="M269.2,96.6h2.6l9.7,22.4l-2.4,0.5l-3.2-7.5H265l-3,7.3h-2.5L269.2,96.6z M265.9,110h9.1l-4.6-10.8L265.9,110z"
	/>
<path class="st0" d="M302,119.2l-14.5-19v18.9h-2.3V96.7h2.3l14,18.4V96.7h2.3v22.5L302,119.2z"/>
<path class="st0" d="M316.4,119.2h-6.6V96.7h6.8c8.3,0,12.9,4.5,12.9,11.2C329.4,114.8,324.4,119.2,316.4,119.2z M316.6,98.7h-4.3
	v18.5h4.3c6.3,0,10.3-3.1,10.3-9.2S322.8,98.7,316.6,98.7z"/>
<path class="st1" d="M69.9,23.5c5.5,2.4,11.4,3.7,17.4,3.9c5.6-0.2,11.1-1.3,16.3-3.3c1.7,2.9,3.8,5.4,6.3,7.6
	c2.3,1.9,4.7,3.7,7.3,5.2c-3.7,6.5-5.7,13.9-5.8,21.4c0,7.1,1.9,12.3,3.7,17.2s3.6,9.8,3.6,16.9s-3.1,13.1-9.1,17.9
	c-5.4,4.3-13.2,7.7-22.4,9.6s-14.4,4.4-17.2,6.2c-2.8-1.8-7.9-4.3-17.2-6.2s-17-5.3-22.4-9.6c-6.1-4.8-9.1-10.9-9.1-17.9
	s1.8-11.9,3.6-16.9s3.7-10.1,3.7-17.2c-0.1-7.5-2.1-14.9-5.8-21.4c2.6-1.5,5-3.3,7.2-5.2c2.5-2.2,4.6-4.8,6.3-7.6
	c5.2,2,10.7,3.1,16.3,3.3C58.5,27.2,64.4,25.9,69.9,23.5 M105.2,19.5c0,0-9,4.3-17.9,4.3s-17.4-4.3-17.4-4.3s-8.4,4.3-17.4,4.3
	s-17.9-4.3-17.9-4.3c-1.7,3.6-4.1,6.8-7,9.5c-3.1,2.6-6.4,4.8-10,6.6c4.7,6.6,7.3,14.6,7.4,22.8c0,13.4-7.4,19-7.4,34.2
	c0,17.7,16.5,27.3,34.4,31.1C66.7,126.7,70,131,70,131s3.2-4.3,17.9-7.4c17.9-3.8,34.4-13.4,34.4-31.1c0-15.1-7.3-20.8-7.3-34.2
	c0.1-8.1,2.6-16.1,7.3-22.7c-3.6-1.8-6.9-4-10-6.6C109.3,26.4,106.9,23.1,105.2,19.5L105.2,19.5z"/>
<path class="st0" d="M114.2,73.3c-1.9-4.8-2.9-9.9-2.9-15c0.1-7.5,2.1-14.8,5.8-21.3c-2.6-1.5-5-3.3-7.3-5.2
	c-2.5-2.2-4.6-4.8-6.3-7.6c-5.2,2-10.7,3.1-16.3,3.3c-6-0.2-11.9-1.5-17.4-4v49.8H114.2z"/>
<path class="st2" d="M114.2,73.3H69.9v53c2.8-1.8,7.9-4.3,17.2-6.2s17-5.3,22.4-9.6c6.1-4.8,9.1-10.9,9.1-17.9s-1.8-11.9-3.6-16.9
	C114.7,74.8,114.4,74.1,114.2,73.3z"/>
<path class="st0" d="M25.7,73.3c-0.3,0.8-0.5,1.5-0.8,2.3c-1.9,5-3.6,9.8-3.6,16.9s3.1,13.1,9.1,17.9c5.4,4.3,13.2,7.7,22.4,9.6
	s14.4,4.4,17.2,6.2v-53H25.7z"/>
<path class="st2" d="M69.9,23.5c-5.5,2.4-11.4,3.7-17.4,3.9c-5.6-0.2-11.1-1.3-16.3-3.3c-1.7,2.9-3.8,5.4-6.3,7.6
	c-2.3,2-4.7,3.7-7.2,5.2c3.7,6.5,5.8,13.9,5.8,21.4c0,5.1-1,10.2-2.9,15h44.2V23.5z"/>
<path class="st3" d="M69.9,56.1c8.2,0,14.9,7.7,14.9,17.2s-6.7,17.2-14.9,17.2S55,82.8,55,73.3S61.7,56.1,69.9,56.1"/>
<path class="st0" d="M69.9,56.1c8.2,0,14.9,7.7,14.9,17.2s-6.7,17.2-14.9,17.2S55,82.8,55,73.3S61.7,56.1,69.9,56.1 M69.9,54.7
	c-9,0-16.3,8.3-16.3,18.6s7.3,18.6,16.3,18.6s16.3-8.3,16.3-18.6S78.9,54.7,69.9,54.7z"/>
<path class="st0" d="M74,85.8h-8.2V78h0.6c0.6,0,1.1-0.5,1.1-1.1c0-0.6-0.5-1.1-1.1-1.1c-0.6,0-1.1,0.5-1.1,1.1c0,0,0,0,0,0v0.6
	h-6.9v-8.3h6.9v0.6c0,0.6,0.5,1.1,1.1,1.1s1.1-0.5,1.1-1.1c0-0.6-0.5-1.1-1.1-1.1l0,0h-0.6v-7.8H74v7.8h-0.6c-0.6,0-1.1,0.5-1.1,1.1
	s0.5,1.1,1.1,1.1c0.6,0,1.1-0.5,1.1-1.1l0,0v-0.6h6.9v8.2h-6.9v-0.6c0-0.6-0.6-1.1-1.2-1.1c-0.6,0-1.1,0.6-1.1,1.2
	c0,0.6,0.5,1.1,1.1,1.1H74V85.8z M67,84.6h5.8v-5.5c-1.2-0.3-2-1.6-1.7-2.9c0.3-1.2,1.6-2,2.9-1.7c0.8,0.2,1.4,0.8,1.7,1.7h4.6v-5.8
	h-4.6c-0.3,1.2-1.6,2-2.9,1.6s-2-1.6-1.6-2.9c0.2-0.8,0.8-1.4,1.6-1.6v-5.5H67v5.5c1.2,0.3,2,1.6,1.7,2.9s-1.6,2-2.9,1.7
	c-0.8-0.2-1.4-0.9-1.7-1.7h-4.6v5.8h4.6c0.3-1.2,1.6-2,2.9-1.7c1.2,0.3,2,1.6,1.7,2.9c-0.2,0.8-0.9,1.4-1.7,1.7L67,84.6z"/>
<path class="st1" d="M34.7,94.3c1.1-1.2,2.4-2.3,4.3-2.3s3.1,1.1,4.3,2.3c1.2-1.2,2.4-2.3,4.3-2.3s3.1,1.1,4.2,2.3
	c1-1.3,2.4-2.1,4-2.3c-0.9-3.7-3.8-5.4-7.3-5.4c-1.9,0-4.3,1.7-5.3,2.5c-1-0.9-3.4-2.5-5.3-2.5c-3.4-0.2-6.5,2.1-7.3,5.4
	C32.2,92.2,33.7,93,34.7,94.3z"/>
<path class="st1" d="M52.4,94.9c0.8,1.1,2.1,1.9,3.5,2.1c0.2-0.7,0.2-1.4,0.2-2.1c0-0.7-0.1-1.3-0.2-2C54.5,93,53.2,93.8,52.4,94.9z
	"/>
<path class="st1" d="M34,94.9c-1-1.1-2-2-3.6-2.1c-0.1,0.7-0.2,1.3-0.2,2c0,0.7,0.1,1.5,0.3,2.2C31.9,96.8,33.2,96,34,94.9z"/>
<path class="st1" d="M47.5,92.8c-1.5,0-2.6,1-3.7,2.1C44.9,96,46,97,47.5,97s2.6-1,3.6-2.1C50.1,93.8,49.1,92.8,47.5,92.8z"/>
<path class="st1" d="M51.8,95.6c-1.1,1.2-2.3,2.3-4.2,2.3s-3.2-1.1-4.3-2.3c-1.2,1.2-2.4,2.3-4.3,2.3s-3.1-1.1-4.3-2.3
	c-1,1.2-2.3,2-3.9,2.3c2.3,7.4,12.4,12.5,12.4,12.5s10.1-5.1,12.4-12.5C54.1,97.6,52.7,96.8,51.8,95.6z"/>
<path class="st1" d="M38.9,92.8c-1.5,0-2.6,1-3.6,2.1c1,1.1,2.1,2.1,3.6,2.1s2.6-1,3.7-2.1C41.5,93.8,40.5,92.8,38.9,92.8z"/>
<g>
	<path class="st3" d="M52.4,94.9c0.9-1.2,2.2-1.9,3.6-2.1c0-0.3-0.1-0.6-0.2-0.9c-1.6,0.2-3,1-4,2.3c-1.1-1.2-2.3-2.3-4.2-2.3
		s-3.2,1.1-4.3,2.3c-1.2-1.2-2.4-2.3-4.3-2.3s-3.1,1.1-4.3,2.3c-1-1.3-2.4-2.1-4-2.3c-0.1,0.3-0.1,0.6-0.2,0.9
		c1.5,0.1,2.5,1,3.6,2.1c-0.9,1.1-2.1,1.9-3.5,2.1c0.1,0.3,0.1,0.6,0.2,0.9c1.5-0.3,2.9-1.1,3.9-2.3c1.1,1.2,2.4,2.3,4.3,2.3
		s3.1-1.1,4.3-2.3c1.2,1.2,2.4,2.3,4.3,2.3s3.1-1.1,4.2-2.3c1,1.2,2.3,2,3.9,2.3c0.1-0.3,0.2-0.6,0.2-0.9
		C54.5,96.8,53.2,96,52.4,94.9z M38.9,97c-1.5,0-2.6-1-3.6-2.1c1-1.1,2.1-2.1,3.6-2.1s2.6,1,3.7,2.1C41.5,96,40.5,97,38.9,97z
		 M47.5,97c-1.5,0-2.6-1-3.7-2.1c1.1-1.1,2.1-2.1,3.7-2.1s2.6,1,3.6,2.1C50.1,96,49.1,97,47.5,97z"/>
	<path class="st3" d="M46.3,80.4h-2.2v-2.1h-1.7v2.1h-2.2v1.7h2.2v4.4h1.7v-4.4h2.2V80.4z"/>
	<path class="st3" d="M98.1,106.8c-1-0.2-2-0.6-3-1c-1.4-0.8-2.9-1.5-4.4-2c-1.3-0.3-2.6-0.4-3.9-0.3c-0.7-1-1.7-1.7-2.8-2
		c-0.7-0.2-5.2-0.9-5.8-1c-0.9-0.2-1.8-0.4-2.6-0.6l-1.4,3.7c0.8,0.3,1.6,0.5,2.4,0.6c0.6,0.1,5.1,0.8,5.9,1
		c1.2,0.4,2.3,1.1,3.1,2.2c1.5-0.1,2.9,0,4.3,0.3c1.7,0.6,3.3,1.3,4.8,2.2c1,0.5,2.1,0.9,3.3,1.1l14.4-21.9l-0.7-2.8L98.1,106.8z"/>
	<path class="st3" d="M56.1,59.6c-0.2-0.2-0.5-0.3-0.8-0.1c-0.4,0.2-0.9,0.4-1.3,0.3c-1.2,0-2-1.1-2.5-2.8c-0.3-1.4-0.5-2.9-0.4-4.3
		h-1.2c0,1.1,0,2.3,0.2,3.4L50,56c-0.4-0.9-0.8-2.1-1.2-3.3h-1.2c0.4,1.4,0.8,2.6,1.3,3.7c1.3,3.2,2.8,4.8,4.5,4.8
		c1.9,0,2.5-0.7,2.7-0.8C56.3,60.2,56.4,59.8,56.1,59.6z"/>
	<path class="st3" d="M31,59.6c0.2-0.2,0.5-0.3,0.8-0.1c0.4,0.2,0.9,0.4,1.4,0.3c1.2,0,2-1.1,2.5-2.8c0.3-1.4,0.5-2.9,0.4-4.3h1.2
		c0,1.1,0,2.3-0.2,3.4c0,0,0-0.1,0-0.1c0.4-0.9,0.8-2.1,1.2-3.3h1.3c-0.4,1.4-0.9,2.6-1.3,3.7c-1.3,3.2-2.8,4.8-4.5,4.8
		c-1.9,0-2.5-0.7-2.6-0.8C30.8,60.1,30.8,59.8,31,59.6z"/>
	<path class="st3" d="M46.7,49.4H48c-0.3-1.1-0.5-2.1-0.8-3.1l0.2-0.2c1.4-1.4,2.9-2.7,4.6-3.7c-0.8,1.6-1.3,3.2-1.6,4.9
		c-0.1,0.6-0.2,1.3-0.3,2h1.2c0.1-0.7,0.2-1.3,0.2-1.8c0.4-2.3,1.3-4.6,2.6-6.5c0.2-0.2,0.2-0.5,0-0.7c-0.2-0.2-0.5-0.3-0.8-0.1
		c-2.3,1.3-4.5,2.9-6.5,4.7c-0.1-0.4-0.2-0.8-0.2-1c-0.4-2.1-1.7-3.7-3.1-3.7s-2.7,1.6-3.1,3.7c0,0.3-0.1,0.6-0.2,1
		c-2-1.8-4.1-3.4-6.5-4.7c-0.3-0.1-0.6-0.1-0.8,0.1c-0.2,0.2-0.2,0.5,0,0.7c1.3,1.9,2.2,4.2,2.6,6.5c0.1,0.5,0.2,1.1,0.2,1.8h1.2
		c-0.1-0.8-0.2-1.5-0.3-2c-0.3-1.7-0.8-3.4-1.6-4.9c1.7,1,3.2,2.3,4.6,3.7l0.2,0.2c-0.2,1-0.5,2-0.8,3.1h1.2
		c0.2-0.6,0.3-1.3,0.5-1.9c0.7,1,1.4,2.1,2,3.2c-1.3,2.5-2,5.2-2.2,8c0,4.8,2.7,4.8,2.8,4.8s2.8,0,2.8-4.8c-0.1-2.8-0.9-5.5-2.2-8
		c0.6-1.1,1.3-2.2,2-3.2C46.4,48.1,46.5,48.8,46.7,49.4z M45.2,58.7c0,3.4-1.5,3.6-1.6,3.6s-1.6-0.2-1.6-3.6
		c0.1-2.3,0.6-4.6,1.6-6.6C44.6,54.1,45.1,56.4,45.2,58.7z M43.6,49.4c-0.7-1.2-1.4-2.4-2.3-3.4c0.2-0.8,0.3-1.5,0.4-2
		c0.3-1.8,1.3-2.7,1.9-2.7s1.6,1,1.9,2.7c0.1,0.5,0.2,1.2,0.4,2C45,47.1,44.2,48.2,43.6,49.4z"/>
	<path class="st3" d="M37.6,51c0,0.6-0.4,1-1,1s-1-0.4-1-1s0.4-1,1-1S37.6,50.4,37.6,51z"/>
	<path class="st3" d="M40.4,51c0,0.6-0.4,1-1,1s-1-0.4-1-1s0.4-1,1-1S40.4,50.4,40.4,51z"/>
	<path class="st3" d="M48.8,51c0,0.6-0.4,1-1,1s-1-0.4-1-1s0.4-1,1-1S48.8,50.4,48.8,51z"/>
	<path class="st3" d="M51.6,51c0,0.6-0.4,1-1,1s-1-0.4-1-1s0.4-1,1-1S51.6,50.4,51.6,51z"/>
	<path class="st3" d="M32.9,33.4l0.3,1h1.1L33.4,35l0.3,1l-0.9-0.6L32,35.9l0.3-1l-0.9-0.6h1.1L32.9,33.4z"/>
	<path class="st3" d="M43.6,30l0.3,1H45l-0.9,0.6l0.3,1L43.6,32l-0.9,0.6l0.3-1L42.2,31h1.1L43.6,30z"/>
	<path class="st3" d="M43.6,36.7l0.3,1H45l-0.9,0.6l0.3,1l-0.9-0.6l-0.9,0.6l0.3-1l-0.9-0.6h1.1L43.6,36.7z"/>
	<path class="st3" d="M39.5,30.3l0.3,1h1.1L40,31.9l0.3,1l-0.9-0.6l-0.9,0.6l0.3-1l-0.9-0.6h1.1L39.5,30.3z"/>
	<path class="st3" d="M39.5,36.4l0.3,1h1.1L40,38l0.3,1l-0.9-0.6L38.6,39l0.3-1l-0.9-0.6h1.1L39.5,36.4z"/>
	<path class="st3" d="M35.8,31.2l0.3,1h1.1l-0.9,0.6l0.3,1l-0.9-0.6L35,33.8l0.3-1l-0.9-0.6h1.1L35.8,31.2z"/>
	<path class="st3" d="M35.8,35.5l0.3,1h1.1l-0.9,0.6l0.3,1l-0.9-0.6L35,38.1l0.3-1l-0.9-0.6h1.1L35.8,35.5z"/>
	<path class="st3" d="M54.2,33.4l-0.3,1h-1.1l0.9,0.6l-0.3,1l0.9-0.6l0.9,0.6l-0.3-1l0.9-0.6h-1.1L54.2,33.4z"/>
	<path class="st3" d="M47.7,30.3l-0.3,1h-1.1l0.9,0.6l-0.3,1l0.9-0.6l0.9,0.6l-0.3-1l0.9-0.6H48L47.7,30.3z"/>
	<path class="st3" d="M47.7,36.4l-0.3,1h-1.1l0.9,0.6l-0.3,1l0.9-0.6l0.9,0.6l-0.3-1l0.9-0.6H48L47.7,36.4z"/>
	<path class="st3" d="M51.3,31.2l-0.3,1h-1.1l0.9,0.6l-0.3,1l0.9-0.6l0.9,0.6l-0.3-1l0.9-0.6h-1.1L51.3,31.2z"/>
	<path class="st3" d="M51.3,35.5l-0.3,1h-1.1l0.9,0.6l-0.3,1l0.9-0.6l0.9,0.6l-0.3-1l0.9-0.6h-1.1L51.3,35.5z"/>
	<path class="st3" d="M111.2,86.3c0,0-2.1-0.3-3.1-0.6c-0.4-0.1-0.8-0.3-1.2-0.5c-0.8-0.4-1.5-0.6-2.4-0.8c-0.3-0.1-0.7-0.1-1-0.1
		c-0.5,0-1,0.1-1.6,0.2c-0.6-0.7-1.3-1.2-2.2-1.5c-0.9-0.3-1.8-0.5-2.7-0.5c-0.5,0-1-0.1-1.4-0.2c-0.6-0.1-1.3-0.4-1.8-0.7l-0.3-0.2
		L75.7,99.9c0.9,0.3,1.7,0.5,2.6,0.6c0.5,0.1,5.1,0.8,5.8,1c1.1,0.3,2.1,1,2.8,2c1.3-0.1,2.6,0,3.9,0.3c1.5,0.5,3,1.2,4.4,2
		c1,0.4,2,0.8,3,1l13.8-20.4L111.2,86.3z M87.1,102.4c-0.8-0.8-1.7-1.4-2.8-1.7c-0.7-0.2-4.6-0.7-5.2-0.8c-0.8-0.2-1.3-0.3-1.8-0.4
		l13.2-13.7l-0.1,0.1c0.6,0.3,1.1,0.5,1.7,0.7l0.6-0.7h-0.1c-0.6-0.1-1.2-0.3-1.7-0.6l2.6-2.8c0.6,0.3,1.2,0.5,1.8,0.6
		c0.5,0.1,1,0.2,1.6,0.2c0.9,0,1.7,0.2,2.5,0.5c0.7,0.2,1.3,0.6,1.7,1.1l-2.4,2.9c-0.6-0.6-1.2-1-2-1.3c-0.6-0.2-1.2-0.4-1.8-0.4
		l-0.6,0.8c0.7,0,1.4,0.2,2.1,0.4c0.7,0.2,1.3,0.6,1.8,1.2L87.1,102.4z M108.5,89.9v-0.1c0,0-1.3-0.2-2.3-0.3l-0.6,0.7
		c0.8,0.2,1.9,0.3,2.4,0.4l-10.3,15.3c-0.8-0.2-1.5-0.5-2.2-0.8l-0.8-0.4c-1.2-0.7-2.4-1.2-3.7-1.6c-1-0.2-2-0.4-3-0.4l11.2-13.8
		c0.8-0.2,1.5-0.2,2.3-0.1c0.7,0.2,1.4,0.4,2,0.7l0.6-0.7H104c-0.8-0.4-1.5-0.6-2.4-0.8c-0.6-0.1-1.1-0.1-1.7-0.1l2.1-2.6
		c0.5-0.1,1-0.2,1.5-0.2c0.3,0,0.6,0,0.9,0.1c0.8,0.2,1.5,0.4,2.2,0.8c0.4,0.2,0.9,0.4,1.3,0.5c0.8,0.2,1.7,0.4,2.5,0.5L108.5,89.9z
		"/>
	<path class="st3" d="M83.9,61.8c1.2-3.3,2.9-6.4,5-9.2c3.3-4.2,8.4-8.1,10.2-9.7c5.1-4.5,6.5-7.5,6.5-7.5c-0.1-0.4-0.1-0.8,0.1-1.2
		c0.3-0.7,1.5-2,1.8-1.9s0,1.6-0.6,2.5c-0.2,0.3-0.6,0.6-1,0.7c0,0-1.2,2.4-5.6,7.3c-3.3,3.6-8,7.1-10.7,10.6
		c-2.2,2.9-4.6,10-4.6,10L83.9,61.8z"/>
	<path class="st3" d="M85.4,59.2c-1.5-1-2.6-2.4-3.4-4c-1.7-4.1-0.7-6.5-0.7-6.5c0.3,0.6,0.6,1.2,1,1.8c0.8,1.1,1.5,2.3,2.1,3.5
		C86,57.3,85.4,59.2,85.4,59.2z"/>
	<path class="st3" d="M85.9,59.3c1.6,0.7,3.4,1.1,5.2,1c4.5-0.3,6.4-2,6.4-2c-0.7,0-1.4,0-2.1-0.1C94,58.1,92.6,58,91.2,58
		C87.5,58.1,85.9,59.3,85.9,59.3z"/>
	<path class="st3" d="M87.9,55.3c1.4,0.9,3,1.3,4.6,1.4c4.1,0,6-1.5,6-1.5c-0.6,0-1.3-0.1-1.9-0.2c-1.2-0.3-2.5-0.5-3.7-0.6
		C89.4,54.2,87.9,55.3,87.9,55.3z"/>
	<path class="st3" d="M90.7,51.8c1.1,0.8,2.4,1.3,3.8,1.5c3.5,0.3,5.2-1,5.2-1c-0.6-0.1-1.1-0.2-1.6-0.3c-1-0.3-2.1-0.5-3.1-0.7
		C93.6,51.1,92.1,51.2,90.7,51.8z"/>
	<path class="st3" d="M93.2,48.9c1,0.7,2.2,1.2,3.4,1.4c1.6,0.3,3.3,0,4.7-0.8c-0.5-0.1-1-0.2-1.5-0.3c-0.9-0.3-1.9-0.5-2.8-0.7
		C95.8,48.2,94.4,48.3,93.2,48.9z"/>
	<path class="st3" d="M96,46.3c0.8,0.7,1.8,1.2,2.9,1.3c1.4,0.2,2.9,0,4.1-0.8c-0.4-0.1-0.8-0.2-1.2-0.3c-0.8-0.3-1.6-0.5-2.4-0.7
		C98.2,45.7,97,45.8,96,46.3z"/>
	<path class="st3" d="M98.6,44c0.7,0.6,1.6,1,2.6,1.1c1.3,0.2,2.5-0.1,3.6-0.8c-0.4,0-0.8-0.1-1.1-0.2c-0.7-0.2-1.4-0.4-2.1-0.5
		C100.5,43.4,99.5,43.5,98.6,44z"/>
	<path class="st3" d="M101,41.9c0.7,0.5,1.5,0.8,2.3,0.8c1.1,0,2.2-0.4,3-1.2c-0.3,0-0.7,0-1-0.1c-0.6-0.1-1.2-0.2-1.9-0.3
		C102.6,41,101.7,41.3,101,41.9z"/>
	<path class="st3" d="M103.2,39.3c0.6,0.4,1.3,0.7,2,0.7c1,0,1.9-0.4,2.6-1.1c-0.3,0-0.6,0-0.8-0.1c-0.5-0.1-1.1-0.2-1.6-0.2
		C104.6,38.6,103.8,38.8,103.2,39.3z"/>
	<path class="st3" d="M104.6,37c0.4,0.4,1,0.7,1.7,0.7c0.8,0,1.6-0.4,2.2-1c-0.2,0-0.5,0-0.7-0.1c-0.4-0.1-0.9-0.2-1.3-0.3
		C105.8,36.3,105.1,36.5,104.6,37z"/>
	<path class="st3" d="M87.7,55.2c-1.3-0.9-2.3-2.2-2.9-3.6c-1.2-3.6,0-5.7,0-5.7c0.2,0.6,0.5,1.1,0.8,1.6c0.6,1,1.2,2,1.7,3.1
		C88.5,53.5,87.7,55.2,87.7,55.2z"/>
	<path class="st3" d="M90.3,51.8c-1.1-0.8-2-1.9-2.5-3.2c-0.9-3.2,0.3-5,0.3-5c0.2,0.5,0.4,1,0.7,1.4c0.6,0.9,1,1.8,1.4,2.8
		C91.2,50.3,90.3,51.8,90.3,51.8z"/>
	<path class="st3" d="M93,48.8c-1-0.7-1.7-1.7-2.1-2.8c-0.5-1.5-0.2-3.1,0.6-4.4c0.1,0.4,0.3,0.8,0.5,1.2c0.5,0.8,0.8,1.6,1.1,2.5
		C93.6,46.4,93.6,47.7,93,48.8z"/>
	<path class="st3" d="M95.6,46.2c-0.8-0.7-1.5-1.6-1.7-2.6c-0.3-1.3,0-2.7,0.8-3.8c0.1,0.4,0.2,0.8,0.4,1.2c0.4,0.7,0.7,1.4,0.9,2.2
		C96.4,44.1,96.2,45.2,95.6,46.2z"/>
	<path class="st3" d="M98.2,43.8c-0.7-0.6-1.3-1.4-1.5-2.3c-0.2-1.2,0.1-2.4,0.9-3.4c0.1,0.3,0.2,0.7,0.3,1c0.3,0.6,0.5,1.3,0.7,1.9
		C99,42,98.8,43,98.2,43.8z"/>
	<path class="st3" d="M100.6,41.7c-1.5-1.2-1.6-3.4-0.4-4.8c0.1-0.1,0.1-0.2,0.2-0.2c0,0.3,0.1,0.6,0.2,0.9c0.2,0.6,0.4,1.2,0.5,1.8
		C101.4,40.2,101.2,41.1,100.6,41.7z"/>
	<path class="st3" d="M103,39.2c-0.6-0.4-1-0.9-1.2-1.6c-0.2-0.9-0.1-1.8,0.5-2.5c0.1,0.2,0.2,0.5,0.3,0.7c0.2,0.4,0.5,0.9,0.6,1.4
		C103.4,37.9,103.4,38.6,103,39.2z"/>
	<path class="st3" d="M104.7,37c-0.5-0.3-0.8-0.7-1-1.2c-0.2-0.6-0.1-1.4,0.2-1.9c0.1,0.2,0.1,0.4,0.2,0.5c0.2,0.3,0.4,0.6,0.6,1
		C104.9,35.9,104.9,36.5,104.7,37z"/>
	<path class="st3" d="M40.8,134c1.3-0.8,3.1-1.8,3.7-2.1c3.4,0.7,6.7,1.7,9.9,3c-0.5,0.4-1,0.8-1.4,1.1c-0.9,0.6-1.8,1.1-2.2,1.4
		c-5.7-0.6-10.2-1.2-12.2-1.5C39.2,135.1,40,134.5,40.8,134L40.8,134z"/>
	<path class="st3" d="M102.6,142.9c0.4,3,0.6,4.5,0.8,5.4c-11,2.1-22.2,3.1-33.4,3.2c-11.2-0.1-22.4-1.2-33.4-3.2
		c0.2-1,0.4-2.4,0.8-5.4c0.3-2.5,0.5-5,0.6-6c10.6,1.6,21.3,2.5,32.1,2.6c10.7-0.1,21.5-1,32.1-2.6
		C102.1,137.9,102.2,140.1,102.6,142.9z"/>
	<path class="st3" d="M99,134c0.8,0.5,1.5,1.1,2.2,1.8c-2,0.3-6.6,0.9-12.2,1.5c-0.4-0.2-1.2-0.7-2.2-1.4c-0.4-0.3-1-0.7-1.4-1.1
		c3.2-1.3,6.5-2.3,9.9-3C96,132.2,97.8,133.2,99,134z"/>
	<path class="st3" d="M116.3,20.3c-4.9,0.3-5.8,1-5.9,1.2c0.8,0.3,1.6,0.5,2.5,0.5c1.3,0.1,2.6,0.5,3.8,1v-2.8L116.3,20.3z"/>
	<path class="st3" d="M115.6,15.1c-4.9-0.3-9.5-0.2-14.6-0.1c-15.3,0.5-30.6,1.9-45.7,4.1c-10.1,1.4-18.8,2.6-26.6,2.8
		C22.4,22,18.2,20.5,17.7,19c0-1.6,0-9,0-11.2c1.9,1.3,5.5,1.5,6.8,1.5h2.1c7.7-0.2,16.2-1.4,26.2-2.8c12.2-1.7,28-3.7,43.1-4
		c5.3-0.1,10.4,0,15.4,0.3l1.3,0.1c2.6,0.2,8.8,0.7,9.2,2.8c0.2,4,0.1,6.9,0,10.8C119.9,15.6,117.7,15.1,115.6,15.1z"/>
	<path class="st3" d="M47.5,3.2c0-1.7,2.8-1.9,4.1-2c1.9,0,4.2,0.3,4.2,2.1v1.5l-3.2,0.4L47.5,6L47.5,3.2z"/>
	<path class="st3" d="M38,4.7c1.3,0.4,2.7,0.5,4.1,0.5c1.4,0,2.8-0.3,4.1-0.9v1.9c-2.9,0.4-5.6,0.8-8.2,1L38,4.7z"/>
	<path class="st3" d="M27.9,1.7h0.5c4.9-0.1,8.3,0.6,8.4,1.8v0.3l0.1,3.5c-3.6,0.4-7,0.7-10.3,0.7h-2.1c-3.2,0-6.8-0.8-6.9-2.5
		S21.1,1.9,27.9,1.7z"/>
	<path class="st3" d="M88.3,18.9v-2.1c1.8-0.1,3.6-0.2,5.5-0.3v2.1C92.5,18.3,89.9,17.9,88.3,18.9z"/>
	<path class="st3" d="M116.2,19.1c-2,0-4,0.4-5.8,1l-0.1-4c1.7,0,3.4,0.1,5.2,0.2c3.5,0.2,5.7,1,6.3,1.6
		C121.5,18.2,120.4,18.8,116.2,19.1z"/>
	<path class="st3" d="M91.6,23.5c4.7-0.7,9.3-2,13.6-4c1.1,2.3,2.4,4.4,4,6.3c5,0,7.4-0.7,7.6-1.2c0-0.8-2.5-1.2-4-1.4
		c-2-0.3-3.5-0.5-3.5-1.6l-0.1-5.5c-2.7,0-5.3,0-8.1,0c-2,0-4,0.1-6,0.2l0.1,3.8l-0.8-0.2c-1.1-0.3-4.2-0.9-5.4,0.1
		c-0.4,0.3-0.6,0.8-0.5,1.2C88.4,21.6,88.8,22.5,91.6,23.5z"/>
</g>
<path class="st0" d="M24.6,19h-0.2c-1.9,0-3.4-1.5-3.4-3.4c0-0.1,0-0.3,0-0.4c0-1.9,1.5-3.5,3.4-3.5c0.1,0,0.2,0,0.3,0
	c0.9,0,1.8,0.4,2.4,1l0.1,0.1l-0.5,1l-0.1-0.1c-0.5-0.5-1.1-0.8-1.8-0.9c-1.3-0.1-2.4,0.9-2.5,2.2c0,0.1,0,0.2,0,0.2
	c-0.2,1.3,0.8,2.5,2.1,2.6c0.1,0,0.1,0,0.2,0c0.7,0,1.4-0.2,1.9-0.7l0.1-0.1l0.5,1C26.4,18.7,25.5,19,24.6,19z"/>
<path class="st0" d="M30.7,19.1c-1.9,0-3.5-1.5-3.5-3.4c0-0.1,0-0.1,0-0.2c0-1,0.3-2,1-2.7c0.7-0.6,1.6-1,2.5-1
	c1.9,0,3.5,1.5,3.5,3.4c0,0.1,0,0.1,0,0.2c0,1-0.3,2-1,2.7C32.5,18.8,31.6,19.1,30.7,19.1z M30.7,12.9c-0.6,0-1.2,0.3-1.6,0.7
	c-0.5,0.5-0.7,1.2-0.7,1.9c-0.1,1.3,0.9,2.4,2.2,2.5c0,0,0.1,0,0.1,0c0.6,0,1.2-0.2,1.7-0.7c0.5-0.5,0.7-1.2,0.7-1.9
	C33.1,14.1,32.1,13,30.7,12.9C30.8,12.9,30.7,12.9,30.7,12.9z"/>
<path class="st0" d="M35.5,18.8l-0.7-7l1.2-0.1l4.1,4.7c0-0.3-0.1-0.8-0.2-1.4l-0.4-3.7l1.1-0.1l0.7,7l-1.1,0.1l-4.2-4.8
	c0,0.4,0.1,0.9,0.2,1.4l0.4,3.7L35.5,18.8z"/>
<path class="st0" d="M42.5,18l-1-7l3.9-0.5l0.1,1l-2.7,0.4l0.3,2l2.6-0.4l0.2,1L43.3,15l0.4,2.9L42.5,18z"/>
<path class="st0" d="M49.7,17.1c-1.8,0-3.3-1.3-3.5-3.1c-0.2-1,0.1-2,0.7-2.8c0.6-0.7,1.4-1.2,2.3-1.4c1.9-0.3,3.7,1,4,3
	c0,0,0,0.1,0,0.1c0.2,1-0.1,2-0.7,2.8c-0.6,0.7-1.4,1.2-2.3,1.3C50.1,17.1,49.9,17.1,49.7,17.1z M49.7,10.9c-0.1,0-0.2,0-0.4,0
	c-0.6,0.1-1.2,0.4-1.5,0.9c-0.4,0.6-0.6,1.3-0.4,2c0.1,1.2,1.1,2.2,2.4,2.2c0.1,0,0.2,0,0.4,0c0.6-0.1,1.2-0.4,1.5-0.9
	c0.4-0.6,0.5-1.3,0.4-2C52,11.9,51,10.9,49.7,10.9L49.7,10.9z"/>
<path class="st0" d="M54.5,16.3l-1-7l2-0.3c0.6-0.1,1.2,0,1.7,0.3c0.5,0.3,0.8,0.8,0.9,1.4c0.2,0.9-0.3,1.8-1.1,2.1l2.3,2.8
	l-1.4,0.2l-2.1-2.7l-0.5,0.1l0.4,2.9L54.5,16.3z M54.8,10.2l0.3,2.1l0.6-0.1c0.4,0,0.7-0.1,1-0.4c0.2-0.2,0.3-0.6,0.3-0.9
	c0-0.3-0.2-0.6-0.5-0.8c-0.3-0.1-0.7-0.2-1.1-0.1L54.8,10.2z"/>
<path class="st0" d="M60.8,15.5l-0.8-6l-1.9,0.2l-0.1-1l4.9-0.6l0.1,1l-1.8,0.2l0.8,6L60.8,15.5z"/>
<path class="st0" d="M62.9,15.2l2-7.4l1-0.1l3.6,6.7l-1.3,0.1l-0.9-1.7l-2.7,0.3l-0.5,1.9L62.9,15.2z M65.5,9.4l-0.7,2.7l2-0.2
	L65.5,9.4z"/>
<path class="st0" d="M69.8,14.4l-0.7-7l2-0.2c0.6-0.1,1.2,0,1.7,0.3c0.5,0.3,0.8,0.9,0.8,1.4c0.1,0.9-0.4,1.8-1.2,2.1l2.2,2.9
	l-1.4,0.1l-2-2.8l-0.5,0.1l0.3,2.9L69.8,14.4z M70.3,8.3l0.2,2.1l0.6-0.1c0.4,0,0.7-0.1,1-0.3c0.2-0.2,0.4-0.5,0.3-0.9
	c0-0.3-0.2-0.6-0.5-0.8c-0.2-0.1-0.4-0.2-0.6-0.1h-0.5L70.3,8.3z"/>
<path class="st0" d="M74.9,13.9l-0.6-7l4.1-0.4l0.1,1l-2.9,0.3l0.2,1.8l2.8-0.2l0.1,1l-2.8,0.2l0.2,2.1l3-0.3l0.1,1L74.9,13.9z"/>
<path class="st0" d="M81.9,13.3l-0.5-7L85.4,6l0.1,1l-2.9,0.2L82.7,9l2.8-0.2l0.1,1L82.8,10l0.2,2.1L86,12v1L81.9,13.3z"/>
<path class="st0" d="M88.5,12.9c-0.8,0-1.6-0.4-2.1-1l-0.1-0.1L87,11l0.1,0.1c0.4,0.5,1,0.8,1.7,0.8c0.3,0,0.6-0.1,0.8-0.3
	c0.2-0.2,0.3-0.5,0.3-0.8c0-0.6-0.7-0.8-1-0.9c-0.4-0.1-0.8-0.3-1.1-0.4c-0.3-0.1-0.6-0.3-0.8-0.5c-0.3-0.3-0.5-0.8-0.5-1.2
	c0-0.5,0.2-1.1,0.6-1.5c0.4-0.4,1-0.6,1.6-0.6h0.2c0.7,0,1.4,0.3,1.9,0.8l0.1,0.1L90,7.4l-0.1-0.1c-0.4-0.4-0.9-0.6-1.4-0.6
	c-0.3,0-0.5,0.1-0.7,0.3c-0.2,0.2-0.3,0.4-0.2,0.6c0,0.6,0.4,0.8,0.8,0.9l1.2,0.4c0.3,0.1,0.6,0.3,0.8,0.5c0.3,0.3,0.5,0.8,0.5,1.2
	c0,0.6-0.2,1.2-0.6,1.6c-0.5,0.4-1,0.7-1.7,0.7L88.5,12.9z"/>
<path class="st0" d="M93.2,12.5l-0.3-6L91,6.6l-0.1-1l4.9-0.3l0.1,1L94,6.4l0.3,6L93.2,12.5z"/>
<path class="st0" d="M99.3,12.4c-1.9,0-3.5-1.5-3.5-3.4c0,0,0-0.1,0-0.1c-0.2-1.9,1.2-3.6,3.1-3.8c0.1,0,0.2,0,0.3,0h0.2
	c1.9,0,3.5,1.5,3.5,3.4c0,0,0,0.1,0,0.1c0.2,1.9-1.2,3.6-3.1,3.8c-0.1,0-0.2,0-0.3,0H99.3z M99.3,6.1L99.3,6.1
	c-1.4,0.1-2.4,1.2-2.4,2.5c0,0.1,0,0.1,0,0.2c0,1.3,1,2.4,2.3,2.5c0,0,0,0,0.1,0h0.1c1.3,0,2.3-1.1,2.3-2.4c0-0.1,0-0.1,0-0.2
	c0.1-1.3-0.9-2.4-2.2-2.5C99.4,6.1,99.4,6.1,99.3,6.1L99.3,6.1z"/>
<path class="st0" d="M108.4,12.3h-1l-2.2-7.2h1.2l1.6,5.3l2-5.1h1.2L108.4,12.3z"/>
<path class="st0" d="M112.5,12.5l-1.2-0.1l0.6-7l1.2,0.1L112.5,12.5z"/>
<path class="st0" d="M118.5,13.1l-1.4-0.1l-1.4-3.1l-0.5-0.1l-0.3,2.9l-1.2-0.1l0.8-7l2,0.2c0.6,0,1.2,0.3,1.6,0.7
	c0.4,0.4,0.6,1,0.5,1.6c-0.1,0.9-0.7,1.7-1.7,1.8L118.5,13.1z M115.3,8.7l0.6,0.1h0.5c0.2,0,0.4,0,0.6-0.1c0.3-0.2,0.5-0.5,0.5-0.8
	c0.1-0.3,0-0.6-0.3-0.9c-0.3-0.2-0.6-0.3-1-0.3l-0.6-0.1L115.3,8.7z"/>
<path class="st3" d="M7.8,111.1c0.7,0,1.3-0.1,1.8-0.1c3.8,0,4.8,1.1,4.9,1.5v0.3c0,0.4-0.1,1.4-6.8,2.7L7.8,111.1z"/>
<path class="st3" d="M7.2,116.9l0.6-0.1c3.8-0.7,5.8-1.3,6.8-2v4.2c-1.2,0.3-2.5,0.6-3.7,1c-5.2,1.4-5.8,1.4-6.8,1.4H3.9
	c-0.4,0-2.1-0.1-2.6-1.1v-0.1c0,0,0-0.1,0-0.1C1.2,119.2,1.5,118,7.2,116.9z"/>
<path class="st3" d="M34.9,129.7c-6.5,0-13.3,1.2-22.9,4h-0.1c-1.6,0.5-3.2,0.8-4.9,1c-0.4,0-0.9,0.1-1.3,0.1
	c-1.5,0-4.1-0.3-4.3-2.2c0-4.6-0.1-5.8-0.1-9.1v-1.6c0.8,0.5,1.7,0.7,2.7,0.7h0.2c1.2,0,2-0.1,7-1.5c1.4-0.4,2.8-0.7,4.1-1.1
	c6.4-1.7,12.9-2.6,19.5-2.8c6.9,0,13.6,1.3,21.6,4.3c-0.2,1.9-1,8.6-1.5,12.3c-4.9-2-10-3.3-15.3-3.9
	C38.1,129.7,36.5,129.7,34.9,129.7z"/>
<path class="st3" d="M125.3,112.6c0.1-0.4,1.1-1.5,4.9-1.5c0.6,0,1.2,0,1.9,0.1l0.1,4.5c-6.8-1.2-6.8-2.2-6.8-2.7
	C125.3,112.8,125.3,112.7,125.3,112.6L125.3,112.6z"/>
<path class="st3" d="M138.6,123.4c-0.1,3.3-0.1,4.5-0.1,9.1c-0.2,1.9-2.8,2.2-4.3,2.2c-0.4,0-0.9,0-1.3-0.1c-1.6-0.2-3.3-0.5-4.9-1
	h-0.1c-9.5-2.8-16.4-4-22.9-4c-1.6,0-3.2,0.1-4.8,0.2c-5.2,0.6-10.4,1.9-15.3,3.9c-0.5-3.4-1.3-10.4-1.5-12.3
	c8-2.9,14.7-4.3,21.6-4.3c6.6,0.1,13.1,1,19.5,2.7c1.4,0.3,2.8,0.7,4.2,1.1c5,1.3,5.9,1.4,7,1.5h0.2c0.9,0,1.9-0.2,2.7-0.7
	L138.6,123.4z"/>
<path class="st3" d="M138.6,120.2L138.6,120.2c-0.6,1.1-2.3,1.2-2.6,1.2h-0.2c-0.9,0-1.6,0-6.8-1.4c-1.2-0.3-2.5-0.7-3.7-1v-4.2
	c1.1,0.7,3,1.3,6.8,2l0.6,0.1c5.8,1.1,6,2.3,6,3.2L138.6,120.2z"/>
<path class="st0" d="M10.3,131.7c-0.8,0-1.6-0.3-2.2-0.9l-0.1-0.1l0.7-1.1l0.2,0.1c0.5,0.4,1,0.6,1.6,0.7c0.1,0,0.2,0,0.3,0
	c0.7-0.1,1.3-0.6,1.1-1.3s-0.9-0.7-1.3-0.8h-0.1c-0.4-0.1-1-0.2-1.3-0.3c-0.3-0.1-0.6-0.2-0.9-0.4c-0.4-0.3-0.7-0.8-0.8-1.3
	c-0.1-0.6,0.1-1.3,0.5-1.7c0.5-0.5,1.1-0.8,1.8-0.9c0.2,0,0.4-0.1,0.6-0.1c0.7,0,1.4,0.2,1.9,0.6l0.1,0.1l-0.6,1.1l-0.2-0.1
	c-0.5-0.4-1.1-0.5-1.7-0.4c-0.3,0-0.6,0.2-0.8,0.4C9,125.5,8.9,125.8,9,126c0.1,0.5,0.5,0.7,1.1,0.8l1.5,0.3
	c0.4,0.1,0.7,0.3,1.1,0.5c0.4,0.3,0.7,0.8,0.8,1.3c0.1,0.7-0.1,1.4-0.5,1.9c-0.5,0.5-1.2,0.9-1.9,1
	C10.8,131.7,10.5,131.8,10.3,131.7L10.3,131.7z"/>
<path class="st0" d="M14.2,130.6l1.4-8.5l1.2-0.3l5.1,6.9l-1.6,0.4l-1.3-1.7l-3,0.7l-0.3,2.1L14.2,130.6z M16.6,124l-0.4,2.9
	l2.1-0.5L16.6,124z"/>
<path class="st0" d="M25,128.3c-2,0.1-3.7-1.4-4-3.4c-0.2-1.1,0.1-2.2,0.7-3.1c0.7-0.9,1.7-1.4,2.8-1.6c0.3,0,0.6-0.1,0.8-0.1
	c0.8,0,1.5,0.2,2.2,0.6l0.1,0.1l-0.5,1.3L27,122c-0.5-0.4-1.1-0.5-1.7-0.5c-0.2,0-0.3,0-0.5,0c-1.4,0.2-2.5,1.5-2.3,2.9
	c0,0.1,0,0.2,0,0.2c0.1,1.3,1.3,2.3,2.6,2.3c0.2,0,0.4,0,0.5,0c0.8-0.1,1.5-0.5,2-1.2l0.1-0.2l0.9,1l-0.1,0.1
	c-0.6,0.9-1.6,1.5-2.8,1.6C25.5,128.3,25.3,128.3,25,128.3L25,128.3z"/>
<path class="st0" d="M29.5,127.6l-0.4-7.9l2.4-0.1c0.7-0.1,1.4,0.1,2,0.4c0.6,0.4,0.9,1,0.9,1.7c0.1,1-0.5,2-1.5,2.3l2.5,3.3
	l-1.8,0.1l-2.2-3.1h-0.5l0.2,3.2L29.5,127.6z M30.7,120.9l0.1,2.2h0.6c0.4,0,0.8-0.1,1.2-0.3c0.3-0.2,0.4-0.5,0.4-0.9
	c0-0.3-0.2-0.7-0.5-0.8c-0.3-0.1-0.5-0.2-0.8-0.2h-0.4L30.7,120.9z"/>
<path class="st0" d="M40.8,127.7l-5-0.3l0.5-7.8l5,0.3l-0.2,1.2l-3.5-0.2l-0.1,1.8l3.3,0.2l-0.1,1.3l-3.3-0.2l-0.2,2.2l3.6,0.2
	L40.8,127.7z"/>
<path class="st0" d="M45.4,128.4c-0.4,0-0.8,0-1.1-0.1l-2.5-0.5l1.6-7.7l2.5,0.5c1.1,0.2,2.1,0.8,2.8,1.6c0.7,0.9,0.9,2,0.7,3.1
	c-0.2,1.1-0.9,2-1.8,2.6C46.8,128.2,46.1,128.4,45.4,128.4z M43.5,126.8l1,0.2c0.3,0.1,0.5,0.1,0.8,0.1c1.3,0.1,2.4-0.8,2.6-2.1
	c0.2-0.7,0-1.5-0.4-2.2c-0.5-0.5-1.1-0.9-1.8-1l-1-0.2L43.5,126.8z"/>
<path class="st0" d="M93.4,128.6l-1.3-7.8l1.4-0.2l0.5,3l3.7-0.6l-0.5-3l1.4-0.2l1.3,7.8l-1.5,0.2l-0.6-3.4l-3.7,0.6l0.6,3.5
	L93.4,128.6z"/>
<path class="st0" d="M101.3,127.4l-0.2-7.9l5-0.1v1.2l-3.5,0.1v1.9l3.3-0.1v1.2l-3.3,0.1v2.2l3.6-0.1v1.3L101.3,127.4z"/>
<path class="st0" d="M115,128.2l-1.6-0.2l-0.6-2l-3.1-0.4l-1,1.8l-1.6-0.2l4.3-7.4l1.2,0.2L115,128.2z M110.3,124.5l2.2,0.3
	l-0.8-2.8L110.3,124.5z"/>
<path class="st0" d="M121.5,129.5l-1.8-0.4l-1.3-3.6l-0.5-0.1l-0.7,3.2l-1.4-0.3l1.6-7.7l2.3,0.5c0.7,0.1,1.4,0.5,1.8,1
	c0.4,0.5,0.6,1.2,0.5,1.9c-0.2,1-1,1.8-2.1,1.8L121.5,129.5z M118.1,124.2l0.6,0.1c0.3,0.1,0.5,0.1,0.8,0.1c0.2,0,0.3,0,0.5-0.1
	c0.3-0.1,0.6-0.4,0.6-0.8c0.1-0.3,0-0.7-0.2-0.9c-0.3-0.3-0.7-0.4-1.1-0.5l-0.6-0.1L118.1,124.2z"/>
<path class="st0" d="M125.1,130.5l-1.4-0.4l1.7-6.4l-2.1-0.6l0.3-1.2l5.7,1.5l-0.3,1.2l-2.1-0.6L125.1,130.5z"/>
<path class="st0" d="M123,5.5L123,5.5c-0.6-2.8-5.6-3.5-10.3-3.9c-0.5,0-0.9-0.1-1.2-0.1c-5-0.3-10.2-0.4-15.5-0.3
	c-13,0.4-26,1.5-38.9,3.4V3.3c-0.1-2.2-2-3.4-5.5-3.3c-3.2,0.1-5,1.1-5.2,2.9C45,3.6,43.6,4,42.2,4c-1.4,0.1-2.8-0.1-4.2-0.6
	c-0.1-1.3-1.5-2.2-4.2-2.6c-1.8-0.2-3.6-0.3-5.3-0.3h-0.5c-7,0.1-11.5,2.2-11.4,5.1c0.1,2.7,0,11.9,0.1,13.5v0.1
	c0.7,2.4,5.5,3.9,12.1,3.8c7.8-0.2,16.6-1.4,26.7-2.8c9-1.2,21-2.6,31.7-3.4l0.1,3.8c0,0,0,0.5,0,1c0,0.1,0,0.3,0.1,0.4
	c0.4,0.8,1,1.4,1.8,1.8c0.8,0,1.7-0.1,2.5-0.2c-2.8-1-3.2-1.9-3.2-2.3c0-0.4,0.2-0.8,0.6-1.1c1.2-1,4.3-0.4,5.4-0.1l0.8,0.2L95,16.3
	c2-0.1,4-0.2,6-0.2c2.8-0.1,5.5-0.1,8.1,0l0.1,5.5c0,1.1,1.5,1.3,3.5,1.6c1.5,0.2,4,0.6,4,1.4c-0.2,0.5-2.6,1.2-7.6,1.2
	c0.3,0.4,0.7,0.8,1,1.2h0.2c3.6-0.1,6.2-0.6,7.2-1.4c0.3-0.2,0.4-0.5,0.4-0.9c0,0,0-0.1,0-0.1l0,0v-4.5c2.8-0.3,4.4-0.8,4.9-1.7
	c0.1-0.2,0.2-0.3,0.2-0.5v-0.2v-1.7C123,12.2,123.2,9.7,123,5.5L123,5.5z M51.5,1.2c1.9,0,4.2,0.3,4.2,2.1v1.5l-3.2,0.4L47.5,6
	l-0.1-2.8C47.4,1.5,50.3,1.2,51.5,1.2z M42.2,5.2c1.4,0,2.8-0.3,4.1-0.9v1.9c-2.9,0.4-5.6,0.8-8.2,1V4.7C39.4,5.1,40.8,5.2,42.2,5.2
	L42.2,5.2z M27.9,1.7h0.5c4.9-0.1,8.3,0.7,8.4,1.8v0.3l0.1,3.5c-3.6,0.4-7,0.7-10.3,0.7h-2.1c-3.2,0-6.8-0.8-6.9-2.5
	S21.1,1.9,27.9,1.7z M88.3,18.9v-2.1c1.8-0.1,3.6-0.2,5.5-0.3v2.1C92.5,18.3,89.9,17.9,88.3,18.9z M116.8,23c-1.2-0.5-2.5-0.9-3.8-1
	c-0.8-0.1-1.7-0.3-2.5-0.5c0.1-0.3,1-0.9,5.9-1.2h0.4V23z M116.2,19c-2,0-4,0.4-5.8,1l-0.1-4c1.7,0,3.4,0.1,5.2,0.2
	c3.5,0.2,5.7,1,6.3,1.6C121.5,18.2,120.4,18.8,116.2,19L116.2,19z M121.9,16.4c-2-0.9-4.1-1.4-6.3-1.4c-4.9-0.3-9.5-0.2-14.6-0.1
	c-15.3,0.5-30.6,1.9-45.7,4.1c-10.1,1.4-18.8,2.6-26.6,2.8C22.4,22,18.2,20.5,17.7,19c0-1.6,0-9,0-11.2c1.9,1.3,5.5,1.5,6.8,1.5h2.1
	c7.7-0.2,16.2-1.4,26.2-2.8c12.2-1.7,28-3.7,43.1-4c5.3-0.1,10.4,0,15.4,0.3l1.3,0.1c2.6,0.2,8.8,0.7,9.2,2.8
	C122,9.7,122,12.6,121.9,16.4L121.9,16.4z"/>
<path class="st0" d="M52.7,148.4h-0.5c-2.1-0.3-3.6-2.2-3.3-4.3c0.3-1.8,1.8-3.2,3.6-3.3c0.2,0,0.3,0,0.5,0c1,0.1,1.9,0.5,2.5,1.3
	l0.1,0.1l-0.7,1.1l-0.2-0.2c-0.4-0.6-1.1-0.9-1.8-1c-1.3-0.2-2.5,0.7-2.7,2c0,0.1,0,0.2,0,0.2c-0.1,0.7,0.1,1.4,0.5,1.9
	c0.4,0.5,1,0.8,1.7,0.9h0.4c0.6,0,1.2-0.2,1.7-0.6l0.2-0.2l0.5,1.1l-0.1,0.1C54.3,148.1,53.5,148.4,52.7,148.4z"/>
<path class="st0" d="M59.4,149h-0.3c-1,0-1.9-0.5-2.6-1.2c-1.4-1.6-1.2-4.1,0.4-5.5c0.7-0.6,1.5-0.9,2.4-1h0.3
	c2.1,0.1,3.7,2,3.5,4.1C63.1,147.4,61.4,149,59.4,149L59.4,149z M59.4,142.6c-1.3,0-2.4,1-2.4,2.4c0,0,0,0,0,0.1
	c-0.1,0.7,0.1,1.4,0.6,1.9c1,1,2.6,0.9,3.6-0.1c1-1,0.9-2.6-0.1-3.6c-0.4-0.4-0.9-0.6-1.5-0.7L59.4,142.6z"/>
<path class="st0" d="M68,149.2l-3.8-0.1l0.2-7.4h1.3l-0.2,6.2L68,148L68,149.2z"/>
<path class="st0" d="M68.7,149.2v-7.4H70v6.2h2.5v1.2H68.7z"/>
<path class="st0" d="M73.3,149.2l-0.3-7.4l4.5-0.1v1.2l-3.1,0.1l0.1,1.8l3-0.1v1.2l-3,0.1l0.1,2.1l3.2-0.1v1.2L73.3,149.2z"/>
<path class="st0" d="M82.1,148.9c-2.1-0.1-3.8-1.8-3.7-3.9c0.1-1.9,1.5-3.5,3.4-3.7c1.1-0.1,2.2,0.2,3,1l0.2,0.2l-0.9,0.9l-0.1-0.1
	c-0.5-0.5-1.2-0.8-1.9-0.8h-0.2c-1.4,0.3-2.4,1.6-2.1,3c0.2,1.2,1.3,2.2,2.6,2.2c0.6,0,1.3-0.2,1.8-0.7l-0.1-1.3l-1.9,0.1l-0.1-1.2
	l3.2-0.2l0.2,3l-0.1,0.1c-0.8,0.9-1.8,1.4-3,1.4L82.1,148.9z"/>
<path class="st0" d="M86.8,148.3l-0.9-7.3l4.4-0.6l0.2,1.2l-3.1,0.4l0.2,1.7l2.9-0.4l0.2,1.2l-2.9,0.4L88,147l3.2-0.4l0.2,1.2
	L86.8,148.3z"/>
<path class="st0" d="M133.3,115.8l-0.1-5.8h-0.5c-0.9-0.1-1.7-0.1-2.5-0.1c-5.8,0-6.1,2.3-6.1,2.7c0,0.1,0,0.1,0,0.2v6
	c-6.2-1.7-12.6-2.6-19.1-2.7c-7.2,0-14.1,1.4-22.5,4.5l-0.4,0.2v0.5c0,0.1,1.7,14,1.7,14s1.4,1.1,2.3,1.7l0.8,0.6
	c-5.3,0.5-11.3,0.9-17.2,0.9S58,138,52.8,137.5l0.8-0.6c1-0.6,2.3-1.7,2.3-1.8s1.7-13.9,1.7-14l0-0.5l-0.4-0.2
	C49,117.4,42,116,34.8,116c-6.4,0.1-12.8,1-19,2.6v-6c0-0.1,0-0.1,0-0.2c0-0.4-0.3-2.7-6.1-2.7c-0.8,0-1.6,0-2.5,0.1H6.6l-0.1,5.8
	c-5.5,1.2-6.6,2.6-6.6,4.5v0.1l0.1,3.2c0.1,3.3,0.1,4.5,0.1,9.2v0.1c0.2,2.1,2.2,3.3,5.5,3.3c0.5,0,1,0,1.4-0.1
	c1.7-0.2,3.4-0.6,5-1.1h0.1c9.4-2.8,16.2-3.9,22.5-3.9h1.6c0,0,0.7,0,1.6,0.1s1.6,0.1,1.6,0.1c1,0.1,2,0.2,3,0.4
	c-0.8,0.4-1.7,1-2.5,1.5c-1.7,1.1-3.4,2.4-3.4,2.5v0.7c0,0-0.1,3-0.6,6.5c-0.6,4.2-0.9,5.9-0.9,5.9l-0.2,0.6l0.6,0.1
	c11.3,2.2,22.8,3.3,34.3,3.4c11.5-0.1,23-1.2,34.3-3.4l0.6-0.1l-0.2-0.6c0,0-0.4-1.8-0.9-5.9c-0.4-3.6-0.6-6.5-0.6-6.5v-0.7
	c-1.1-0.9-2.3-1.7-3.4-2.5c-0.8-0.5-1.7-1.1-2.5-1.5c1-0.2,2-0.3,3-0.4l1.6-0.1c0.9-0.1,1.6-0.1,1.6-0.1h1.6
	c6.4,0,13.1,1.2,22.5,3.9h0.1c1.6,0.5,3.3,0.9,5,1.1c0.5,0.1,1,0.1,1.4,0.1c3.3,0,5.3-1.2,5.5-3.3v-0.1c0-4.6,0.1-5.8,0.1-9.2v-3.2
	v-0.1C139.8,118.2,138.7,116.9,133.3,115.8L133.3,115.8z M125.3,112.5c0.1-0.4,1.1-1.5,4.9-1.5c0.6,0,1.2,0,1.9,0.1l0.1,4.5
	c-6.8-1.2-6.8-2.2-6.8-2.7C125.3,112.8,125.3,112.7,125.3,112.5z M7.8,111.1c0.7,0,1.3-0.1,1.9-0.1c3.8,0,4.9,1.1,4.9,1.5v0.3
	c0,0.4-0.1,1.4-6.8,2.7L7.8,111.1z M7.2,116.9l0.6-0.1c3.8-0.7,5.8-1.3,6.8-2v4.2c-1.2,0.3-2.5,0.6-3.7,1c-5.2,1.4-5.8,1.4-6.8,1.4
	H3.9c-0.4,0-2.1-0.1-2.6-1.1v-0.1c0,0,0-0.1,0-0.1C1.2,119.2,1.5,118,7.2,116.9z M39.7,129.9c-1.6-0.2-3.2-0.2-4.8-0.2
	c-6.5,0-13.3,1.2-22.9,4h-0.1c-1.6,0.5-3.2,0.8-4.9,1c-0.4,0-0.9,0.1-1.3,0.1c-1.5,0-4.1-0.3-4.3-2.2c0-4.6-0.1-5.8-0.1-9.1v-1.6
	c0.8,0.5,1.7,0.7,2.7,0.7h0.2c1.2,0,2-0.1,7-1.5c1.4-0.4,2.8-0.7,4.1-1.1c6.4-1.7,12.9-2.6,19.5-2.8c6.9,0,13.6,1.3,21.6,4.3
	c-0.2,1.9-1,8.8-1.5,12.3C50,131.7,44.9,130.4,39.7,129.9L39.7,129.9z M40.8,134c1.3-0.8,3.1-1.8,3.7-2.1c3.4,0.7,6.7,1.7,9.9,3
	c-0.5,0.4-1,0.8-1.4,1.1c-0.9,0.6-1.8,1.1-2.2,1.4c-5.7-0.6-10.2-1.2-12.2-1.5C39.2,135.1,40,134.5,40.8,134L40.8,134z M102.6,142.9
	c0.4,3,0.6,4.5,0.8,5.4c-11,2.1-22.2,3.1-33.4,3.2c-11.2-0.1-22.4-1.2-33.4-3.2c0.2-1,0.4-2.4,0.8-5.4c0.3-2.5,0.5-5,0.6-6
	c10.6,1.6,21.3,2.5,32.1,2.6c10.7-0.1,21.5-1,32.1-2.6C102.1,137.9,102.2,140.1,102.6,142.9L102.6,142.9z M99,134
	c0.8,0.5,1.5,1.1,2.2,1.8c-2,0.3-6.6,0.9-12.2,1.5c-0.4-0.2-1.2-0.7-2.2-1.4c-0.4-0.3-1-0.7-1.4-1.1c3.2-1.3,6.5-2.3,9.9-3
	C96,132.2,97.8,133.2,99,134z M138.5,123.4c-0.1,3.3-0.1,4.5-0.1,9.1c-0.2,1.9-2.8,2.2-4.3,2.2c-0.4,0-0.9,0-1.3-0.1
	c-1.6-0.2-3.3-0.5-4.9-1h-0.1c-9.5-2.8-16.4-4-22.9-4c-1.6,0-3.2,0.1-4.8,0.2c-5.2,0.6-10.4,1.9-15.3,3.9
	c-0.5-3.5-1.3-10.4-1.5-12.3c8-2.9,14.7-4.3,21.6-4.3c6.6,0.1,13.2,1,19.6,2.7c1.4,0.3,2.8,0.7,4.1,1.1c5,1.3,5.9,1.4,7,1.5h0.2
	c0.9,0,1.9-0.2,2.7-0.7L138.5,123.4z M138.5,120.2L138.5,120.2c-0.6,1.1-2.3,1.2-2.6,1.2h-0.2c-0.9,0-1.6,0-6.8-1.4
	c-1.2-0.3-2.5-0.7-3.7-1v-4.2c1.1,0.7,3,1.3,6.8,2l0.6,0.1c5.8,1.1,6,2.3,6,3.2L138.5,120.2z"/>
</svg>
