<svg viewBox="0 0 705.38 152.76" xmlns="http://www.w3.org/2000/svg"><path d="m166.28 81.56a28.79 28.79 0 0 1 -13.35-3.11l1-6.64a23.41 23.41 0 0 0 12.52 4.08c5 0 8.5-2.62 8.5-7.26 0-4.35-1.93-6.15-9.12-9.4-9-4.08-12.38-7-12.38-13.9 0-7.67 5.88-12.58 14.52-12.58a21.15 21.15 0 0 1 10.86 2.69l-1 6.5a17 17 0 0 0 -10-3.53c-5.46 0-7.88 2.91-7.88 6.43s1.8 5.4 9.06 8.72c9.26 4.22 12.44 7.4 12.44 14.59-.1 8.23-6.25 13.41-15.17 13.41z" fill="#fff"/><path d="m206.6 81-.69-4.43a15.55 15.55 0 0 1 -11.61 5.13c-6 0-9.69-3.91-9.69-9.51 0-8.23 5.88-11.59 20.82-11.91v-2.09c0-4.15-2.49-5.6-6.29-5.6a28.32 28.32 0 0 0 -11.41 2.83l-.83-5.32a31.92 31.92 0 0 1 12.79-2.77c8 0 11.89 3.25 11.89 10.58v23.09zm-1.17-16c-12.81.4-14.73 3.47-14.73 6.86a4.55 4.55 0 0 0 4.91 4.74 14 14 0 0 0 9.82-4.6z" fill="#fff"/><path d="m446.55 81-.69-4.43a15.55 15.55 0 0 1 -11.61 5.12c-5.95 0-9.68-3.91-9.68-9.51 0-8.23 5.87-11.59 20.81-11.91v-2.08c0-4.15-2.49-5.6-6.29-5.6a28.32 28.32 0 0 0 -11.41 2.83l-.83-5.32a31.92 31.92 0 0 1 12.79-2.77c8 0 11.89 3.25 11.89 10.58v23.09zm-1.17-16c-12.81.4-14.73 3.47-14.73 6.86a4.55 4.55 0 0 0 4.91 4.74 14 14 0 0 0 9.82-4.6z" fill="#fff"/><path d="m231.09 81.7c-8.85 0-15.35-6.16-15.35-17.15 0-11.27 6.92-17.22 15.49-17.22 4.84 0 8.3 1.25 10.79 3.05l-.9 6a14.93 14.93 0 0 0 -10-3.66c-5.39 0-9.2 4.08-9.2 11.75 0 8 4.08 11.83 9.89 11.83a13.55 13.55 0 0 0 9.61-3.67l.9 5.54a17.44 17.44 0 0 1 -11.23 3.53z" fill="#fff"/><path d="m264.25 53.25c-5.18-.08-8.92 3.3-11.13 7.66v20.09h-6.12v-33h4.91l1 6.11c2.35-3.73 6.27-6.8 11.17-6.8a9.25 9.25 0 0 1 2.37.19l-.73 5.81a13.84 13.84 0 0 0 -1.47-.06z" fill="#fff"/><path d="m474.17 53.25c-5.18-.08-8.92 3.3-11.13 7.66v20.09h-6.15v-33h4.9l1 6.11c2.35-3.73 6.27-6.8 11.17-6.8a9.25 9.25 0 0 1 2.37.19l-.74 5.81a13.75 13.75 0 0 0 -1.42-.06z" fill="#fff"/><path d="m282.17 81.7c-8.58 0-15.28-5.18-15.28-17.28 0-10.59 6.22-17.09 14.52-17.09 9.61 0 14 7.4 14 16.53v1.32h-22.41c.21 7.67 3.87 11.27 9.61 11.27 4.78 0 7.17-2 10.77-4.78l.84 5.19c-3.48 2.76-6.59 4.84-12.05 4.84zm-8.85-21.16h15.9c-.76-5.32-3.11-8.36-7.88-8.36-3.8 0-7.05 2.76-8.02 8.36z" fill="#fff"/><path d="m408.47 81.7c-8.58 0-15.28-5.18-15.28-17.29 0-10.58 6.22-17.08 14.52-17.08 9.61 0 14 7.4 14 16.53v1.32h-22.37c.21 7.67 3.88 11.27 9.61 11.27 4.78 0 7.17-2 10.77-4.78l.84 5.19c-3.56 2.76-6.63 4.84-12.09 4.84zm-8.85-21.16h15.9c-.76-5.32-3.11-8.36-7.88-8.36-3.8 0-7.05 2.76-8.02 8.36z" fill="#fff"/><path d="m629.86 81.7c-8.58 0-15.28-5.18-15.28-17.29 0-10.58 6.22-17.08 14.52-17.08 9.61 0 14 7.4 14 16.53v1.32h-22.4c.21 7.67 3.87 11.27 9.61 11.27 4.77 0 7.17-2 10.76-4.78l.85 5.19c-3.49 2.76-6.6 4.84-12.06 4.84zm-8.86-21.16h15.9c-.76-5.32-3.11-8.36-7.88-8.36-3.79 0-7.02 2.76-8.02 8.36z" fill="#fff"/><path d="m692.11 81.7c-8.58 0-15.28-5.18-15.28-17.29 0-10.58 6.22-17.08 14.52-17.08 9.61 0 14 7.4 14 16.53v1.32h-22.35c.21 7.67 3.87 11.27 9.61 11.27 4.77 0 7.17-2 10.76-4.78l.85 5.19c-3.55 2.76-6.65 4.84-12.11 4.84zm-8.85-21.16h15.9c-.76-5.32-3.11-8.36-7.88-8.36-3.8 0-7.06 2.76-8.02 8.36z" fill="#fff"/><path d="m323.62 81-.76-4.77c-2.49 3-5.88 5.46-10.72 5.46-7.12 0-13-5.18-13-16.25 0-12 6.91-17.84 14.94-17.84a23.13 23.13 0 0 1 8.29 1.45v-16.65l6.16-1.32v49.92zm-1.25-26.35a15.6 15.6 0 0 0 -8.09-1.86c-5.18 0-8.92 4.22-8.92 12.38 0 7.26 3.25 11.06 7.68 11.06 3.8 0 6.71-2.28 9.33-5.81z" fill="#fff"/><path d="m381.82 81v-22h-24.13v22h-6.5v-47.7h6.5v19.77h24.13v-19.77h6.5v47.7z" fill="#fff"/><path d="m493.34 81.56c-5.81 0-9.61-2.07-9.61-8.71v-19.64h-5v-5.21h5v-10.62l6-1.25v11.87h7.12l.83 5.18h-7.95v18.56c0 2.7 1.1 4.36 4.56 4.36a16.24 16.24 0 0 0 2.84-.21l.83 5.26a22.91 22.91 0 0 1 -4.62.41z" fill="#fff"/><path d="m537.79 81.91c-13.42 0-22.06-10-22.06-24.69s8.78-24.82 22.19-24.82a23 23 0 0 1 13.56 3.94l-1 6.64a20.44 20.44 0 0 0 -12.65-4.63c-9.68 0-15.43 7.33-15.43 18.8s5.82 18.74 15.43 18.74a22.69 22.69 0 0 0 13.41-4.77l1 6.15a25.16 25.16 0 0 1 -14.45 4.64z" fill="#fff"/><path d="m570.43 81.7c-8.78 0-15.14-6.29-15.14-17.15s6.36-17.22 15.14-17.22 15.35 6.37 15.35 17.22-6.5 17.15-15.35 17.15zm0-29.18c-5.95 0-8.92 5.12-8.92 12s3.11 12 8.92 12c6.09 0 9.13-5.11 9.13-12 0-6.74-3.19-12-9.13-12z" fill="#fff"/><path d="m590.62 81v-48.6l6.16-1.32v49.92z" fill="#fff"/><path d="m603.65 81v-48.6l6.15-1.32v49.92z" fill="#fff"/><path d="m659.61 93.6c-8.58 0-15.42-2.7-15.42-8.51 0-3.39 2.35-6 7-8.51a4.21 4.21 0 0 1 -2.07-3.45c0-1.59 1.24-3.11 3.45-4.5a10.66 10.66 0 0 1 -6.15-9.82c0-7.12 6-11.48 12.66-11.48a13.68 13.68 0 0 1 8.5 2.84l8.37-2.63.9 5.53-6.3.63a10.6 10.6 0 0 1 1.31 5.11c0 7.06-5.94 11.34-12.65 11.34a13.06 13.06 0 0 1 -2.49-.21c-1 .63-1.65 1.39-1.65 2 0 1.18 1.17 1.45 7 2.49l2.35.41c7 1.25 11.34 3.46 11.34 8.58-.04 6.92-7.58 10.18-16.15 10.18zm-4-15.15c-3.81 1.94-5.53 3.87-5.53 6.16 0 2.62 3.38 4.56 9.81 4.56s10-2.21 10-5c0-2-1.52-3.39-6.22-4.22l-3.94-.69c-1.73-.32-2.82-.47-4.13-.81zm3.46-26.62c-4.16 0-6.71 3.18-6.71 7.19a6.49 6.49 0 0 0 6.71 6.78c4.21 0 6.84-3.11 6.84-7.06a6.62 6.62 0 0 0 -6.85-6.91z" fill="#fff"/><path d="m162.74 96.58h2.55l9.71 22.42-2.41.49-3.2-7.5h-10.85l-3 7.27h-2.54zm-3.34 13.42h9.13l-4.53-10.81z" fill="#fff"/><path d="m186.54 119.57c-5.82 0-9.27-3.52-9.27-8.77v-14.09h2.48v13.79c0 4.18 2.26 7 6.83 7s6.86-2.64 6.86-6.91v-13.88h2.48v13.93c0 5.44-3.56 8.93-9.38 8.93z" fill="#fff"/><path d="m211.5 119.64c-6.72 0-11.25-4.7-11.25-11.65s4.6-11.71 11.43-11.71a12.8 12.8 0 0 1 7 1.93l-.4 2.28a11.89 11.89 0 0 0 -6.61-2.18c-5.46 0-8.84 3.91-8.84 9.62s3.42 9.65 8.81 9.65a12.3 12.3 0 0 0 7.07-2.35l.36 2.16a13.76 13.76 0 0 1 -7.57 2.25z" fill="#fff"/><path d="m238.39 119.44-12.65-11.84v11.61h-2.48v-22.5h2.48v10.29l11.54-10.24h3.16l-11.93 10.5 12.61 11.71z" fill="#fff"/><path d="m244.45 119.21v-22.5h2.48v20.48h9.56l.35 2z" fill="#fff"/><path d="m269.23 96.58h2.56l9.7 22.37-2.41.49-3.2-7.5h-10.88l-3 7.27h-2.52zm-3.34 13.42h9.11l-4.56-10.76z" fill="#fff"/><path d="m302 119.21-14.48-18.95v18.95h-2.34v-22.5h2.34l14.05 18.36v-18.36h2.33v22.5z" fill="#fff"/><path d="m316.43 119.21h-6.65v-22.5h6.76c8.26 0 12.9 4.53 12.9 11.22 0 6.91-5.03 11.28-13.01 11.28zm.14-20.48h-4.31v18.46h4.31c6.29 0 10.32-3.07 10.32-9.23s-4.14-9.23-10.32-9.23z" fill="#fff"/><path d="m69.91 23.5a46.34 46.34 0 0 0 17.36 3.91 48.79 48.79 0 0 0 16.27-3.29 32.52 32.52 0 0 0 6.27 7.64 49.73 49.73 0 0 0 7.26 5.2 43.68 43.68 0 0 0 -5.81 21.4c0 7.14 1.9 12.26 3.73 17.22s3.62 9.79 3.62 16.94-3.08 13.08-9.14 17.93c-5.43 4.34-13.18 7.66-22.4 9.61s-14.38 4.41-17.16 6.25c-2.78-1.84-7.93-4.3-17.16-6.25s-17-5.27-22.4-9.61c-6.06-4.85-9.14-10.88-9.14-17.93s1.79-11.91 3.62-16.94 3.73-10.08 3.73-17.22a43.57 43.57 0 0 0 -5.81-21.36 49.24 49.24 0 0 0 7.25-5.24 32.7 32.7 0 0 0 6.26-7.64 48.79 48.79 0 0 0 16.27 3.29 46.29 46.29 0 0 0 17.38-3.91m35.28-4s-9 4.27-17.92 4.27-17.36-4.27-17.36-4.27-8.4 4.27-17.36 4.27-17.92-4.27-17.92-4.27a29.91 29.91 0 0 1 -7 9.51 49.12 49.12 0 0 1 -10 6.6 39.74 39.74 0 0 1 7.37 22.75c0 13.39-7.35 19-7.35 34.16 0 17.67 16.51 27.28 34.4 31.07 14.69 3.1 17.9 7.37 17.9 7.37s3.21-4.27 17.9-7.37c17.89-3.79 34.4-13.4 34.4-31.07 0-15.14-7.34-20.77-7.34-34.16a39.78 39.78 0 0 1 7.34-22.71 49.12 49.12 0 0 1 -10-6.6 29.91 29.91 0 0 1 -7-9.51z" fill="#ed1c24"/><path d="m114.16 73.31a42.17 42.17 0 0 1 -2.9-15 43.68 43.68 0 0 1 5.81-21.31 49.73 49.73 0 0 1 -7.26-5.2 32.52 32.52 0 0 1 -6.27-7.64 48.79 48.79 0 0 1 -16.27 3.29 46.34 46.34 0 0 1 -17.36-3.95v49.81z" fill="#124e91"/><path d="m114.16 73.31h-44.25v53c2.78-1.84 7.93-4.3 17.16-6.25s17-5.27 22.4-9.61c6.06-4.85 9.14-10.88 9.14-17.93s-1.76-11.91-3.61-16.94c-.29-.75-.56-1.5-.84-2.27z" fill="#76bce8"/><path d="m25.66 73.31c-.27.77-.55 1.52-.83 2.27-1.86 5-3.62 9.79-3.62 16.94s3.08 13.08 9.14 17.93c5.43 4.34 13.18 7.66 22.4 9.61s14.38 4.41 17.16 6.25v-53z" fill="#124e91"/><path d="m69.91 23.5a46.29 46.29 0 0 1 -17.36 3.91 48.79 48.79 0 0 1 -16.27-3.29 32.7 32.7 0 0 1 -6.28 7.64 49.24 49.24 0 0 1 -7.25 5.24 43.57 43.57 0 0 1 5.81 21.4 42.17 42.17 0 0 1 -2.9 15h44.25z" fill="#76bce8"/><path d="m69.91 56.1c8.23 0 14.93 7.72 14.93 17.21s-6.7 17.22-14.93 17.22-14.91-7.73-14.91-17.22 6.68-17.21 14.91-17.21" fill="#fff"/><path d="m69.91 56.1c8.23 0 14.93 7.72 14.93 17.21s-6.7 17.22-14.93 17.22-14.91-7.73-14.91-17.22 6.68-17.21 14.91-17.21m0-1.36c-9 0-16.26 8.31-16.26 18.57s7.28 18.58 16.26 18.58 16.26-8.32 16.26-18.58-7.28-18.57-16.26-18.57z" fill="#124e91"/><path d="m74 85.77h-8.2v-7.77h.6a1.14 1.14 0 1 0 -1.14-1.13v.6h-6.9v-8.26h6.91v.6a1.14 1.14 0 1 0 1.14-1.14h-.6v-7.81h8.19v7.81h-.6a1.14 1.14 0 1 0 1.14 1.14v-.6h6.92v8.21h-6.91v-.6a1.14 1.14 0 1 0 -1.14 1.18h.59zm-7-1.2h5.8v-5.49a2.34 2.34 0 1 1 2.86-2.87h4.6v-5.8h-4.6a2.33 2.33 0 1 1 -2.86-2.86v-5.49h-5.8v5.49a2.34 2.34 0 1 1 -2.86 2.86h-4.58v5.8h4.59a2.34 2.34 0 1 1 2.85 2.87z" fill="#124e91"/><path d="m34.65 94.26c1.14-1.2 2.36-2.33 4.26-2.33s3.14 1.13 4.3 2.33c1.16-1.2 2.41-2.33 4.31-2.33s3.11 1.13 4.24 2.32a6.12 6.12 0 0 1 4-2.31c-.94-3.66-3.76-5.41-7.28-5.41-1.89 0-4.26 1.67-5.28 2.54-1-.87-3.4-2.54-5.29-2.54a7 7 0 0 0 -7.27 5.41 6.18 6.18 0 0 1 4.01 2.32z" fill="#ed1c24"/><path d="m52.38 94.91a5.37 5.37 0 0 0 3.49 2.09 9.38 9.38 0 0 0 .25-2.12 12.63 12.63 0 0 0 -.16-2 5.26 5.26 0 0 0 -3.58 2.03z" fill="#ed1c24"/><path d="m34 94.91c-1-1.07-2.05-2-3.56-2.07a11.57 11.57 0 0 0 -.16 2 9.38 9.38 0 0 0 .26 2.16 5.35 5.35 0 0 0 3.46-2.09z" fill="#ed1c24"/><path d="m47.52 92.83c-1.55 0-2.61 1-3.68 2.08 1.07 1.09 2.16 2.09 3.68 2.09s2.57-1 3.62-2.08c-1.05-1.11-2.08-2.09-3.62-2.09z" fill="#ed1c24"/><path d="m51.76 95.56c-1.13 1.19-2.35 2.33-4.24 2.33s-3.15-1.14-4.31-2.33c-1.16 1.19-2.41 2.33-4.3 2.33s-3.12-1.14-4.26-2.33a6.26 6.26 0 0 1 -3.87 2.3c2.34 7.37 12.42 12.51 12.42 12.51s10.08-5.14 12.41-12.51a6.21 6.21 0 0 1 -3.85-2.3z" fill="#ed1c24"/><path d="m38.91 92.83c-1.55 0-2.59 1-3.64 2.08 1 1.1 2.09 2.08 3.64 2.08s2.61-1 3.68-2.08c-1.07-1.11-2.13-2.08-3.68-2.08z" fill="#ed1c24"/><g fill="#fff"><path d="m52.38 94.91a5.26 5.26 0 0 1 3.62-2.07 8.43 8.43 0 0 0 -.19-.9 6.12 6.12 0 0 0 -4 2.31c-1.13-1.19-2.35-2.32-4.24-2.32s-3.15 1.13-4.31 2.33c-1.16-1.2-2.41-2.33-4.3-2.33s-3.12 1.13-4.26 2.33a6.18 6.18 0 0 0 -4-2.32 8.43 8.43 0 0 0 -.19.9c1.51.06 2.54 1 3.56 2.07a5.35 5.35 0 0 1 -3.53 2.09c.07.3.15.59.24.88a6.26 6.26 0 0 0 3.87-2.3c1.14 1.19 2.36 2.33 4.26 2.33s3.14-1.14 4.3-2.33c1.16 1.19 2.41 2.33 4.31 2.33s3.11-1.14 4.24-2.33a6.21 6.21 0 0 0 3.87 2.3 6.74 6.74 0 0 0 .24-.88 5.37 5.37 0 0 1 -3.49-2.09zm-13.47 2.09c-1.55 0-2.59-1-3.64-2.08 1-1.1 2.09-2.08 3.64-2.08s2.61 1 3.68 2.08c-1.07 1.08-2.13 2.08-3.68 2.08zm8.61 0c-1.55 0-2.61-1-3.68-2.08 1.07-1.11 2.13-2.08 3.68-2.08s2.57 1 3.62 2.08c-1.05 1.08-2.08 2.08-3.62 2.08z"/><path d="m46.31 80.43h-2.23v-2.13h-1.74v2.13h-2.23v1.74h2.23v4.36h1.74v-4.36h2.23z"/><path d="m98.13 106.79a14.37 14.37 0 0 1 -3-1 27.54 27.54 0 0 0 -4.37-2 11.77 11.77 0 0 0 -3.92-.3 5.41 5.41 0 0 0 -2.8-2c-.7-.2-5.22-.86-5.76-1a20.78 20.78 0 0 1 -2.61-.62l-1.44 3.73a14.2 14.2 0 0 0 2.45.6c.6.11 5.12.76 5.88 1a6 6 0 0 1 3.11 2.2 12.84 12.84 0 0 1 4.33.33 31.49 31.49 0 0 1 4.82 2.16 15.53 15.53 0 0 0 3.27 1.13l14.44-21.91-.69-2.81z"/><path d="m56.14 59.6a.56.56 0 0 0 -.78-.1 2.31 2.31 0 0 1 -1.35.33c-1.2 0-2-1.09-2.51-2.84a16.49 16.49 0 0 1 -.4-4.3h-1.2a23.46 23.46 0 0 0 .19 3.38l-.09-.07c-.38-.94-.78-2.07-1.15-3.27h-1.21c.41 1.36.85 2.64 1.28 3.7 1.32 3.19 2.82 4.81 4.53 4.81 1.91 0 2.52-.7 2.66-.84a.57.57 0 0 0 .03-.8z"/><path d="m31 59.6a.56.56 0 0 1 .78-.1 2.34 2.34 0 0 0 1.35.33c1.2 0 2-1.09 2.51-2.84a16.07 16.07 0 0 0 .4-4.3h1.2a23.54 23.54 0 0 1 -.18 3.38s0-.07 0-.11c.39-.94.78-2.07 1.15-3.27h1.26c-.42 1.36-.86 2.64-1.29 3.7-1.31 3.19-2.82 4.81-4.53 4.81-1.9 0-2.51-.7-2.65-.84a.57.57 0 0 1 0-.76z"/><path d="m46.71 49.41h1.29c-.29-1.07-.55-2.13-.77-3.08l.15-.17a24.17 24.17 0 0 1 4.6-3.7 19.58 19.58 0 0 0 -1.6 4.94c-.1.56-.19 1.26-.26 2h1.2c.07-.68.15-1.3.25-1.81a16 16 0 0 1 2.59-6.5.55.55 0 0 0 0-.73.62.62 0 0 0 -.75-.13 32.33 32.33 0 0 0 -6.47 4.69c-.09-.41-.16-.77-.21-1-.36-2.11-1.69-3.71-3.09-3.71s-2.72 1.6-3.09 3.71c0 .28-.12.64-.2 1a32.57 32.57 0 0 0 -6.48-4.69.62.62 0 0 0 -.75.13.57.57 0 0 0 0 .73 16 16 0 0 1 2.6 6.5c.09.51.17 1.13.24 1.81h1.21c-.08-.75-.17-1.45-.27-2a19.22 19.22 0 0 0 -1.59-4.94 23.74 23.74 0 0 1 4.59 3.7l.16.17c-.23 1-.49 2-.77 3.08h1.23c.18-.64.34-1.28.49-1.89a25.59 25.59 0 0 1 2 3.16 18.71 18.71 0 0 0 -2.16 8c0 4.75 2.72 4.8 2.83 4.8s2.84-.05 2.84-4.8a18.71 18.71 0 0 0 -2.17-8 24.51 24.51 0 0 1 2-3.16c.02.61.19 1.25.36 1.89zm-1.5 9.28c0 3.41-1.48 3.63-1.64 3.64s-1.63-.23-1.63-3.64a16.78 16.78 0 0 1 1.63-6.64 16.62 16.62 0 0 1 1.64 6.64zm-1.64-9.26a24.68 24.68 0 0 0 -2.31-3.43c.18-.79.32-1.48.41-2 .3-1.79 1.3-2.74 1.9-2.74s1.6 1 1.91 2.74c.08.48.22 1.17.4 2a25.6 25.6 0 0 0 -2.31 3.43z"/><path d="m37.56 51a1 1 0 1 1 -1-1 1 1 0 0 1 1 1z"/><path d="m40.37 51a1 1 0 1 1 -1-1 1 1 0 0 1 1 1z"/><path d="m48.82 51a1 1 0 1 1 -1-1 1 1 0 0 1 1 1z"/><path d="m51.63 51a1 1 0 1 1 -1-1 1 1 0 0 1 1 1z"/><path d="m32.9 33.38.33.97h1.07l-.87.61.34.98-.87-.6-.86.6.33-.98-.87-.61h1.07z"/><path d="m43.57 30.05.33.98h1.07l-.87.6.34.98-.87-.6-.86.6.33-.98-.86-.6h1.06z"/><path d="m43.57 36.71.33.98h1.07l-.87.61.34.98-.87-.61-.86.61.33-.98-.86-.61h1.06z"/><path d="m39.48 30.34.33.98h1.07l-.87.6.33.98-.86-.6-.86.6.33-.98-.87-.6h1.07z"/><path d="m39.48 36.42.33.98h1.07l-.87.61.33.98-.86-.61-.86.61.33-.98-.87-.61h1.07z"/><path d="m35.85 31.21.34.98h1.06l-.86.6.33.98-.87-.6-.86.6.33-.98-.86-.6h1.06z"/><path d="m35.85 35.55.34.98h1.06l-.86.61.33.98-.87-.61-.86.61.33-.98-.86-.61h1.06z"/><path d="m54.24 33.38-.33.97h-1.06l.86.61-.33.98.86-.6.87.6-.33-.98.86-.61h-1.07z"/><path d="m47.66 30.34-.33.98h-1.06l.86.6-.33.98.86-.6.87.6-.33-.98.86-.6h-1.07z"/><path d="m47.66 36.42-.33.98h-1.06l.86.61-.33.98.86-.61.87.61-.33-.98.86-.61h-1.07z"/><path d="m51.29 31.21-.33.98h-1.07l.87.6-.33.98.86-.6.86.6-.33-.98.87-.6h-1.07z"/><path d="m51.29 35.55-.33.98h-1.07l.87.61-.33.98.86-.61.86.61-.33-.98.87-.61h-1.07z"/><path d="m111.21 86.27s-2.1-.28-3.07-.56a8.71 8.71 0 0 1 -1.23-.49 10.25 10.25 0 0 0 -2.36-.82 7 7 0 0 0 -1-.08 7.6 7.6 0 0 0 -1.56.16 5.27 5.27 0 0 0 -2.19-1.48 9.5 9.5 0 0 0 -2.73-.53 9.4 9.4 0 0 1 -1.45-.19 8.79 8.79 0 0 1 -1.84-.65l-.28-.16-17.79 18.47a20.78 20.78 0 0 0 2.61.62c.54.1 5.06.76 5.76 1a5.41 5.41 0 0 1 2.8 2 11.77 11.77 0 0 1 3.92.3 27.54 27.54 0 0 1 4.37 2 14.37 14.37 0 0 0 3 1l13.75-20.44zm-24.12 16.12a6 6 0 0 0 -2.78-1.68c-.74-.21-4.63-.74-5.16-.84-.8-.15-1.35-.35-1.79-.43l13.15-13.65-.06.12a8.17 8.17 0 0 0 1.74.65l.64-.7h-.13a8.51 8.51 0 0 1 -1.7-.59l2.64-2.75a9.15 9.15 0 0 0 1.76.59 10.06 10.06 0 0 0 1.57.22 8.67 8.67 0 0 1 2.5.48 4.53 4.53 0 0 1 1.74 1.13l-2.36 2.91a5.47 5.47 0 0 0 -2-1.29 7.65 7.65 0 0 0 -1.79-.44l-.63.77a7.75 7.75 0 0 1 2.12.45 4.56 4.56 0 0 1 1.77 1.17zm21.39-12.48v-.11s-1.26-.15-2.3-.34l-.6.74c.81.16 1.88.31 2.43.38l-10.26 15.27a14.55 14.55 0 0 1 -2.23-.85l-.8-.43a15.39 15.39 0 0 0 -3.72-1.57 12.8 12.8 0 0 0 -3-.39l11.16-13.77a6.29 6.29 0 0 1 2.32-.08 8.86 8.86 0 0 1 2 .7l.56-.67h-.08a9.88 9.88 0 0 0 -2.37-.82 6.46 6.46 0 0 0 -1.68-.06l2.09-2.59a7.53 7.53 0 0 1 1.5-.17 4.91 4.91 0 0 1 .89.08 9 9 0 0 1 2.17.76 10 10 0 0 0 1.34.53 23.35 23.35 0 0 0 2.52.48z"/><path d="m83.93 61.82a33.92 33.92 0 0 1 5-9.23c3.33-4.22 8.39-8.12 10.22-9.73 5.08-4.48 6.52-7.48 6.52-7.48a2 2 0 0 1 .08-1.19c.27-.73 1.49-2 1.85-1.88s0 1.57-.56 2.52a1.65 1.65 0 0 1 -1 .69s-1.15 2.36-5.56 7.28c-3.26 3.63-8 7.1-10.67 10.59-2.25 2.89-4.6 10-4.6 10z"/><path d="m85.4 59.17a10.44 10.44 0 0 1 -3.41-4c-1.69-4.06-.66-6.45-.66-6.45a13.27 13.27 0 0 0 1 1.82 28.7 28.7 0 0 1 2.13 3.46c1.54 3.28.94 5.17.94 5.17z"/><path d="m85.93 59.32a11.43 11.43 0 0 0 5.15 1c4.51-.31 6.38-2 6.38-2a16.25 16.25 0 0 1 -2.13-.06 32.73 32.73 0 0 0 -4.13-.26c-3.74.09-5.27 1.32-5.27 1.32z"/><path d="m87.91 55.27a9.66 9.66 0 0 0 4.6 1.43c4.14 0 6-1.52 6-1.52a14.13 14.13 0 0 1 -1.92-.18 25.71 25.71 0 0 0 -3.73-.57c-3.42-.26-4.95.84-4.95.84z"/><path d="m90.71 51.83a8.06 8.06 0 0 0 3.82 1.47c3.53.27 5.24-1 5.24-1a12.47 12.47 0 0 1 -1.64-.3 20.94 20.94 0 0 0 -3.13-.65 7 7 0 0 0 -4.29.48z"/><path d="m93.23 48.86a7.25 7.25 0 0 0 3.38 1.39 7.53 7.53 0 0 0 4.73-.76 11.68 11.68 0 0 1 -1.46-.3 19.48 19.48 0 0 0 -2.8-.68 6.24 6.24 0 0 0 -3.85.35z"/><path d="m96 46.34a5.65 5.65 0 0 0 2.87 1.35 6 6 0 0 0 4.12-.77 8 8 0 0 1 -1.25-.29 14.62 14.62 0 0 0 -2.4-.65 4.94 4.94 0 0 0 -3.34.36z"/><path d="m98.59 44a5 5 0 0 0 2.6 1.09 5.38 5.38 0 0 0 3.62-.82 7.11 7.11 0 0 1 -1.12-.22 13.25 13.25 0 0 0 -2.14-.49 4.39 4.39 0 0 0 -2.96.44z"/><path d="m101 41.87a3.89 3.89 0 0 0 2.3.79 4.24 4.24 0 0 0 3-1.19 5.94 5.94 0 0 1 -1-.09 10.3 10.3 0 0 0 -1.86-.26 3.38 3.38 0 0 0 -2.44.75z"/><path d="m103.21 39.3a3.33 3.33 0 0 0 2 .68 3.61 3.61 0 0 0 2.56-1.06 4.41 4.41 0 0 1 -.83-.07 8.57 8.57 0 0 0 -1.61-.22 2.92 2.92 0 0 0 -2.12.67z"/><path d="m104.64 37a2.57 2.57 0 0 0 1.65.74 2.83 2.83 0 0 0 2.17-1 3.52 3.52 0 0 1 -.7-.1 5.89 5.89 0 0 0 -1.34-.27 2.22 2.22 0 0 0 -1.78.63z"/><path d="m87.72 55.2a8.37 8.37 0 0 1 -2.89-3.61c-1.24-3.61 0-5.71 0-5.71a10.93 10.93 0 0 0 .81 1.63 20.92 20.92 0 0 1 1.69 3.1c1.17 2.93.39 4.59.39 4.59z"/><path d="m90.35 51.77a6.87 6.87 0 0 1 -2.46-3.21c-.93-3.19.31-5 .31-5a9.5 9.5 0 0 0 .65 1.44 16 16 0 0 1 1.39 2.75c.94 2.58.11 4.02.11 4.02z"/><path d="m93 48.84a5.74 5.74 0 0 1 -2.09-2.84 5.27 5.27 0 0 1 .6-4.4 7.2 7.2 0 0 0 .49 1.24 13.54 13.54 0 0 1 1.13 2.45 4.21 4.21 0 0 1 -.13 3.55z"/><path d="m95.63 46.17a4.84 4.84 0 0 1 -1.73-2.6 4.6 4.6 0 0 1 .82-3.83 6.1 6.1 0 0 0 .39 1.15 10.89 10.89 0 0 1 .89 2.18 3.61 3.61 0 0 1 -.37 3.1z"/><path d="m98.24 43.84a4.16 4.16 0 0 1 -1.47-2.33 4 4 0 0 1 .93-3.36 5.15 5.15 0 0 0 .3 1 9.2 9.2 0 0 1 .7 1.94 3.15 3.15 0 0 1 -.46 2.75z"/><path d="m100.64 41.73a3.44 3.44 0 0 1 -.2-5.09 4.85 4.85 0 0 0 .22.92 7.9 7.9 0 0 1 .53 1.76 2.82 2.82 0 0 1 -.55 2.41z"/><path d="m103 39.19a3 3 0 0 1 -1.18-1.6 2.9 2.9 0 0 1 .48-2.48 4.17 4.17 0 0 0 .28.72 7.43 7.43 0 0 1 .61 1.36 2.29 2.29 0 0 1 -.19 2z"/><path d="m104.66 37a2.33 2.33 0 0 1 -1-1.2 2.24 2.24 0 0 1 .24-1.94 2.75 2.75 0 0 0 .25.55 5.57 5.57 0 0 1 .55 1 1.79 1.79 0 0 1 -.04 1.59z"/><path d="m40.78 134c1.29-.84 3.08-1.81 3.72-2.15a58 58 0 0 1 9.88 3c-.46.35-1 .76-1.44 1.05-.94.62-1.81 1.15-2.17 1.36-5.65-.55-10.18-1.18-12.22-1.48a16.6 16.6 0 0 1 2.23-1.78z"/><path d="m102.57 142.89c.36 3 .56 4.48.77 5.44a190.22 190.22 0 0 1 -33.43 3.23 190.22 190.22 0 0 1 -33.43-3.23c.21-1 .41-2.4.77-5.44.31-2.53.52-5 .58-6a239.21 239.21 0 0 0 32.08 2.63 239.21 239.21 0 0 0 32.09-2.61c.05.98.24 3.23.57 5.98z"/><path d="m99 134a16.6 16.6 0 0 1 2.23 1.8c-2 .3-6.57.93-12.22 1.48-.36-.21-1.22-.74-2.16-1.36-.44-.29-1-.7-1.45-1.05a58 58 0 0 1 9.88-3c.72.33 2.47 1.3 3.72 2.13z"/><path d="m116.32 20.29c-4.89.33-5.75.95-5.86 1.25a10.9 10.9 0 0 0 2.47.54 13.34 13.34 0 0 1 3.83 1v-2.82z"/><path d="m115.58 15.08c-4.94-.28-9.53-.25-14.64-.14a405.94 405.94 0 0 0 -45.72 4.13c-10.09 1.4-18.8 2.61-26.59 2.78-6.24.15-10.43-1.38-10.93-2.85-.05-1.61 0-9 0-11.23 1.86 1.33 5.49 1.51 6.82 1.53h2.11c7.68-.17 16.25-1.38 26.18-2.78 12.16-1.72 28-3.67 43.07-4 5.26-.12 10.45 0 15.44.28l1.27.11c2.62.21 8.75.72 9.25 2.81.15 4 .13 6.91 0 10.78a15.37 15.37 0 0 0 -6.26-1.42z"/><path d="m47.47 3.15c0-1.67 2.83-1.92 4.06-1.95 1.91 0 4.2.3 4.24 2.12v1.5l-3.15.45-5.09.73z"/><path d="m38 4.69a13.73 13.73 0 0 0 4.14.46 9.76 9.76 0 0 0 4.12-.91v1.91c-2.86.39-5.61.75-8.25 1z"/><path d="m27.91 1.72h.53c4.9-.11 8.34.65 8.36 1.83v.3l.07 3.48c-3.61.39-7 .65-10.28.72h-2.07c-3.24 0-6.78-.83-6.9-2.49s3.49-3.69 10.29-3.84z"/><path d="m88.34 18.89v-2.14c1.8-.14 3.64-.25 5.5-.34v2.14c-1.33-.29-3.97-.67-5.5.34z"/><path d="m116.24 19.09a18.92 18.92 0 0 0 -5.85 1l-.09-4c1.73 0 3.45.09 5.23.18 3.47.18 5.69 1 6.3 1.64-.3.27-1.44.9-5.59 1.18z"/><path d="m91.58 23.51a51.83 51.83 0 0 0 13.61-4 30.24 30.24 0 0 0 4 6.32c5 0 7.43-.72 7.59-1.2 0-.78-2.5-1.16-4-1.39-2-.31-3.49-.55-3.52-1.64l-.12-5.54c-2.65 0-5.31 0-8.13.05-2 .05-4 .11-6 .21l.08 3.77-.78-.22c-1.09-.31-4.16-.9-5.39.06a1.38 1.38 0 0 0 -.52 1.24c0 .42.36 1.36 3.18 2.34z"/></g><path d="m24.64 19h-.23a3.41 3.41 0 0 1 -3.41-3.78 3.45 3.45 0 0 1 3.63-3.52 3.34 3.34 0 0 1 2.4 1l.06.06-.55 1-.11-.14a2.44 2.44 0 0 0 -1.8-.86 2.35 2.35 0 0 0 -2.45 2.47 2.36 2.36 0 0 0 2.27 2.64 2.52 2.52 0 0 0 1.92-.73l.11-.11.52.97a3.1 3.1 0 0 1 -2.36 1z" fill="#124e91"/><path d="m30.71 19.14a3.47 3.47 0 0 1 -3.53-3.6 3.62 3.62 0 0 1 1-2.68 3.52 3.52 0 0 1 2.48-1 3.48 3.48 0 0 1 3.53 3.6 3.63 3.63 0 0 1 -1 2.68 3.56 3.56 0 0 1 -2.48 1zm0-6.23a2.31 2.31 0 0 0 -1.65.7 2.67 2.67 0 0 0 -.68 1.89 2.37 2.37 0 0 0 2.33 2.5 2.29 2.29 0 0 0 1.66-.69 2.65 2.65 0 0 0 .67-1.9 2.37 2.37 0 0 0 -2.33-2.5z" fill="#124e91"/><path d="m35.49 18.84-.74-7 1.15-.12 4.1 4.69c0-.33-.1-.84-.15-1.37l-.39-3.72 1.13-.12.74 7-1.08.12-4.17-4.79c0 .35.11.9.16 1.44l.4 3.73z" fill="#124e91"/><path d="m42.55 18-1-7 3.87-.54.14 1-2.73.38.28 2 2.56-.35.15 1-2.53.51.41 2.92z" fill="#124e91"/><path d="m49.69 17.11a3.48 3.48 0 0 1 -3.47-3.11 3.62 3.62 0 0 1 .65-2.78 3.53 3.53 0 0 1 2.33-1.36 3.51 3.51 0 0 1 4 3.09 3.6 3.6 0 0 1 -.65 2.79 3.45 3.45 0 0 1 -2.32 1.32 3.64 3.64 0 0 1 -.54.05zm0-6.23a2.22 2.22 0 0 0 -.37 0 2.27 2.27 0 0 0 -1.55.91 2.58 2.58 0 0 0 -.41 2 2.37 2.37 0 0 0 2.37 2.21 2.19 2.19 0 0 0 .36 0 2.3 2.3 0 0 0 1.55-.91 2.66 2.66 0 0 0 .41-2 2.37 2.37 0 0 0 -2.33-2.21z" fill="#124e91"/><path d="m54.51 16.33-1-7 2-.27a2.63 2.63 0 0 1 1.72.27 2 2 0 0 1 .89 1.43 1.91 1.91 0 0 1 -1.12 2.12l2.32 2.8-1.38.19-2.11-2.69-.53.08.4 2.91zm.33-6.16.28 2.08.56-.08a1.71 1.71 0 0 0 1-.36.94.94 0 0 0 .26-.87.93.93 0 0 0 -.49-.76 1.62 1.62 0 0 0 -1.07-.08z" fill="#124e91"/><path d="m60.79 15.49-.79-5.99-1.86.24-.13-1 4.86-.61.13 1-1.85.24.75 6z" fill="#124e91"/><path d="m62.87 15.22 2-7.36 1-.11 3.59 6.72-1.27.14-.88-1.69-2.68.31-.47 1.85zm2.61-5.79-.69 2.74 2-.23z" fill="#124e91"/><path d="m69.75 14.44-.72-7 2-.2a2.58 2.58 0 0 1 1.71.33 2 2 0 0 1 .82 1.43 1.93 1.93 0 0 1 -1.24 2.09l2.22 2.86-1.38.15-2-2.75-.53.05.3 2.93zm.54-6.14.21 2.08.57-.06a1.7 1.7 0 0 0 1-.32.94.94 0 0 0 .29-.87.91.91 0 0 0 -.46-.77 1 1 0 0 0 -.61-.15h-.46z" fill="#124e91"/><path d="m74.9 13.91-.64-7 4.09-.37.09 1-2.94.26.17 1.81 2.78-.25.09 1-2.78.25.2 2.15 3-.28.1 1z" fill="#124e91"/><path d="m81.86 13.3-.53-7 4.09-.3.08 1-2.94.22.14 1.78 2.78-.21.07 1-2.78.21.17 2.15 3.06-.15v1z" fill="#124e91"/><path d="m88.51 12.94a3 3 0 0 1 -2.13-1l-.06-.07.68-.87.09.11a2.14 2.14 0 0 0 1.65.83 1.3 1.3 0 0 0 .83-.33 1 1 0 0 0 .29-.78c0-.61-.69-.83-1-.95-.38-.12-.84-.28-1.1-.39a2.27 2.27 0 0 1 -.84-.49 1.82 1.82 0 0 1 -.54-1.23 1.87 1.87 0 0 1 .55-1.45 2.41 2.41 0 0 1 1.57-.63h.17a2.64 2.64 0 0 1 1.87.8l.07.06-.61.84-.09-.1a1.85 1.85 0 0 0 -1.43-.6 1.23 1.23 0 0 0 -.73.26.74.74 0 0 0 -.25.64c0 .56.44.75.85.89l1.25.44a2.78 2.78 0 0 1 .83.53 1.94 1.94 0 0 1 .51 1.2 2 2 0 0 1 -.63 1.61 2.55 2.55 0 0 1 -1.66.67z" fill="#124e91"/><path d="m93.17 12.54-.33-6-1.84.08-.06-1 4.89-.27.06 1-1.89.1.33 6z" fill="#124e91"/><path d="m99.35 12.35a3.45 3.45 0 0 1 -3.52-3.51 3.46 3.46 0 0 1 3.39-3.77h.16a3.45 3.45 0 0 1 3.51 3.51 3.46 3.46 0 0 1 -3.39 3.77zm0-6.23h-.1a2.37 2.37 0 0 0 -2.25 2.66 2.38 2.38 0 0 0 2.36 2.47h.1a2.36 2.36 0 0 0 2.26-2.65 2.36 2.36 0 0 0 -2.36-2.48z" fill="#124e91"/><path d="m108.4 12.3h-1l-2.23-7.17h1.23l1.6 5.29 2-5.14h1.22z" fill="#124e91"/><path d="m112.47 12.52-1.15-.09.55-7 1.16.09z" fill="#124e91"/><path d="m118.48 13.08-1.38-.15-1.4-3.12-.53-.06-.32 2.93-1.15-.13.78-7 2 .22a2.63 2.63 0 0 1 1.6.68 2 2 0 0 1 .52 1.6 1.92 1.92 0 0 1 -1.65 1.78zm-3.19-4.34.56.07h.48a1.15 1.15 0 0 0 .59-.13.92.92 0 0 0 .46-.79.91.91 0 0 0 -.28-.86 1.63 1.63 0 0 0 -1-.33l-.56-.07z" fill="#124e91"/><path d="m7.78 111.08c.66 0 1.28-.07 1.85-.07 3.84 0 4.85 1.08 4.93 1.52v.3c0 .43-.1 1.44-6.85 2.68z" fill="#fff"/><path d="m7.21 116.87.55-.1c3.78-.69 5.77-1.34 6.82-2v4.23c-1.22.3-2.47.62-3.72 1-5.15 1.39-5.82 1.41-6.76 1.44h-.18c-.36 0-2.08-.06-2.64-1.1v-.06a.54.54 0 0 1 -.05-.11c-.02-.95.23-2.17 5.98-3.3z" fill="#fff"/><path d="m34.86 129.67c-6.5 0-13.34 1.18-22.87 4h-.12a27.65 27.65 0 0 1 -4.86 1 11.38 11.38 0 0 1 -1.31.07c-1.52 0-4.09-.29-4.33-2.22 0-4.59-.06-5.83-.12-9.13v-1.55a5.33 5.33 0 0 0 2.69.67h.21c1.15 0 2-.13 7-1.48 1.4-.38 2.79-.73 4.15-1.06a81.22 81.22 0 0 1 19.51-2.77c6.94 0 13.61 1.32 21.6 4.26-.21 1.86-1 8.63-1.5 12.29a55 55 0 0 0 -15.26-3.89 47.77 47.77 0 0 0 -4.79-.19z" fill="#fff"/><path d="m125.26 112.55c.07-.44 1.09-1.52 4.93-1.52.57 0 1.19 0 1.85.07l.07 4.47c-6.75-1.24-6.82-2.25-6.85-2.68-.01-.14-.01-.24 0-.34z" fill="#fff"/><path d="m138.57 123.43c-.06 3.3-.08 4.54-.12 9.13-.24 1.93-2.81 2.22-4.33 2.22a11.26 11.26 0 0 1 -1.31-.07 27.46 27.46 0 0 1 -4.86-1h-.12c-9.53-2.79-16.37-4-22.87-4a47.77 47.77 0 0 0 -4.8.23 55 55 0 0 0 -15.26 3.89c-.46-3.39-1.29-10.43-1.5-12.29 8-2.94 14.66-4.26 21.6-4.26a81.22 81.22 0 0 1 19.51 2.72c1.36.33 2.75.68 4.15 1.06 5 1.35 5.88 1.44 7 1.48h.21a5.35 5.35 0 0 0 2.69-.67z" fill="#fff"/><path d="m138.57 120.19v.06c-.56 1-2.28 1.1-2.64 1.1h-.17c-.94 0-1.62 0-6.76-1.44-1.25-.33-2.5-.65-3.72-1v-4.17c1.05.65 3 1.3 6.82 2l.55.1c5.75 1.11 6 2.35 6 3.21z" fill="#fff"/><path d="m10.31 131.73a3.63 3.63 0 0 1 -2.24-.86l-.14-.1.71-1.15.17.15a2.69 2.69 0 0 0 1.65.67 1.87 1.87 0 0 0 .34 0c.66-.13 1.26-.58 1.12-1.31s-.87-.74-1.28-.82h-.05c-.45-.08-1-.18-1.33-.26a2.92 2.92 0 0 1 -.93-.41 2 2 0 0 1 -.82-1.3 2 2 0 0 1 .49-1.74 3 3 0 0 1 1.78-.95 3.26 3.26 0 0 1 .62-.06 3.38 3.38 0 0 1 1.91.62l.14.1-.62 1.14-.17-.12a2.18 2.18 0 0 0 -1.7-.43 1.46 1.46 0 0 0 -.81.38.73.73 0 0 0 -.15.72c.1.5.47.67 1.05.78l1.53.29a3.47 3.47 0 0 1 1.06.47 2.11 2.11 0 0 1 .77 1.26 2.24 2.24 0 0 1 -.54 1.92 3.26 3.26 0 0 1 -1.89 1 3.18 3.18 0 0 1 -.67.01z" fill="#124e91"/><path d="m14.18 130.64 1.39-8.47 1.18-.29 5.13 6.86-1.59.39-1.29-1.7-3 .74-.31 2.09zm2.42-6.64-.43 2.86 2.13-.52z" fill="#124e91"/><path d="m25 128.29a3.88 3.88 0 0 1 -4-3.38 4 4 0 0 1 .72-3.1 4.35 4.35 0 0 1 2.76-1.59 6.07 6.07 0 0 1 .84-.07 4 4 0 0 1 2.2.62l.12.08-.46 1.31-.18-.16a2.89 2.89 0 0 0 -1.72-.52 3 3 0 0 0 -.52 0 2.61 2.61 0 0 0 -2.25 3.14 2.59 2.59 0 0 0 2.61 2.3 3.27 3.27 0 0 0 .53 0 3 3 0 0 0 2-1.2l.13-.2.85 1-.08.12a3.88 3.88 0 0 1 -2.76 1.64 4.7 4.7 0 0 1 -.79.01z" fill="#124e91"/><path d="m29.53 127.57-.42-7.86 2.39-.13a3.22 3.22 0 0 1 2 .45 2.13 2.13 0 0 1 .93 1.69 2.19 2.19 0 0 1 -1.52 2.28l2.46 3.27-1.78.1-2.21-3.11h-.55l.17 3.21zm1.12-6.71.11 2.16h.62a2.11 2.11 0 0 0 1.2-.3.93.93 0 0 0 .37-.87.91.91 0 0 0 -.46-.82 1.48 1.48 0 0 0 -.83-.19h-.4z" fill="#124e91"/><path d="m40.84 127.65-5-.35.52-7.85 5 .34-.17 1.21-3.48-.23-.12 1.85 3.28.22-.08 1.26-3.29-.22-.15 2.22 3.57.24z" fill="#124e91"/><path d="m45.38 128.38a5.5 5.5 0 0 1 -1.13-.12l-2.5-.52 1.6-7.71 2.5.53a4.55 4.55 0 0 1 2.78 1.63 3.77 3.77 0 0 1 .66 3.11 3.72 3.72 0 0 1 -1.85 2.58 4.11 4.11 0 0 1 -2.06.5zm-1.92-1.6 1 .22a4.11 4.11 0 0 0 .77.08 2.5 2.5 0 0 0 2.59-2.08 2.67 2.67 0 0 0 -.44-2.15 2.85 2.85 0 0 0 -1.79-1l-1.05-.22z" fill="#124e91"/><path d="m93.43 128.61-1.31-7.75 1.45-.25.52 3 3.73-.64-.51-3 1.45-.25 1.32 7.76-1.46.25-.62-3.45-3.74.64.58 3.45z" fill="#124e91"/><path d="m101.31 127.42-.19-7.86 5-.12v1.25l-3.49.09v1.86l3.29-.08v1.25l-3.29.08v2.23l3.58-.09v1.27z" fill="#124e91"/><path d="m115 128.24-1.62-.19-.57-2-3.09-.37-1 1.84-1.56-.18 4.27-7.44 1.2.15zm-4.67-3.79 2.17.26-.77-2.79z" fill="#124e91"/><path d="m121.5 129.51-1.75-.36-1.35-3.58-.53-.11-.65 3.16-1.45-.3 1.59-7.71 2.35.49a3.25 3.25 0 0 1 1.84 1 2.13 2.13 0 0 1 .47 1.87 2.18 2.18 0 0 1 -2.07 1.79zm-3.38-5.27.6.13a3.63 3.63 0 0 0 .77.11 1.11 1.11 0 0 0 .46-.09.91.91 0 0 0 .59-.75.93.93 0 0 0 -.24-.91 2.07 2.07 0 0 0 -1.14-.48l-.61-.12z" fill="#124e91"/><path d="m125.06 130.5-1.42-.38 1.72-6.39-2.14-.58.33-1.21 5.69 1.54-.33 1.22-2.12-.58z" fill="#124e91"/><path d="m123 5.54v-.08c-.58-2.77-5.64-3.41-10.34-3.8-.5 0-.94-.07-1.25-.11-5-.3-10.25-.4-15.54-.28a349.29 349.29 0 0 0 -38.87 3.39v-1.37c-.07-2.19-2-3.36-5.5-3.29-3.18.07-5 1.11-5.22 2.86a7.69 7.69 0 0 1 -4.13 1.14 11.59 11.59 0 0 1 -4.15-.58c-.1-1.32-1.53-2.21-4.25-2.63a33.25 33.25 0 0 0 -5.34-.29h-.55c-7 .15-11.49 2.15-11.43 5.08.07 2.69 0 11.9.07 13.48v.13c.66 2.4 5.54 3.92 12.14 3.78 7.85-.17 16.6-1.38 26.72-2.78 9-1.25 21-2.62 31.71-3.44l.09 3.78s0 .46 0 1a1.17 1.17 0 0 0 .07.38 3.93 3.93 0 0 0 1.81 1.75c.84-.05 1.68-.14 2.5-.24-2.82-1-3.18-1.92-3.19-2.31a1.38 1.38 0 0 1 .56-1.11c1.23-1 4.3-.37 5.39-.06l.78.22-.08-3.81c2-.1 4-.16 6-.21 2.82-.06 5.48-.09 8.13-.05l.12 5.54c0 1.09 1.5 1.33 3.52 1.64 1.49.23 4 .61 4 1.39-.16.48-2.55 1.22-7.59 1.2.32.4.66.8 1 1.19h.15c3.62-.08 6.24-.57 7.16-1.41a1.36 1.36 0 0 0 .45-.86.45.45 0 0 0 0-.11s0 0 0 0v-4.51c2.85-.3 4.44-.82 4.94-1.66a1 1 0 0 0 .19-.52v-.16-1.71c-.07-3.87.09-6.46-.07-10.57zm-71.47-4.34c1.91 0 4.2.3 4.24 2.12v1.5l-3.15.45-5.09.73-.06-2.84c-.04-1.68 2.83-1.93 4.06-1.96zm-9.36 4a9.76 9.76 0 0 0 4.12-.91v1.91c-2.86.39-5.61.75-8.25 1v-2.5a13.73 13.73 0 0 0 4.13.45zm-14.26-3.48h.53c4.9-.11 8.34.65 8.36 1.83v.3l.07 3.48c-3.61.39-7 .65-10.28.72h-2.07c-3.24 0-6.78-.83-6.9-2.49s3.49-3.69 10.29-3.84zm60.43 17.17v-2.14c1.8-.14 3.64-.25 5.5-.34v2.14c-1.33-.29-3.97-.67-5.5.34zm28.42 4.11a13.34 13.34 0 0 0 -3.83-1 10.9 10.9 0 0 1 -2.47-.54c.11-.3 1-.92 5.86-1.25h.44zm-.52-3.95a18.92 18.92 0 0 0 -5.85 1l-.09-4c1.73 0 3.45.09 5.23.18 3.47.18 5.69 1 6.3 1.64-.3.31-1.44.94-5.59 1.22zm5.64-2.64a15.37 15.37 0 0 0 -6.3-1.37c-4.94-.28-9.53-.25-14.64-.14a405.94 405.94 0 0 0 -45.72 4.13c-10.09 1.4-18.8 2.61-26.59 2.78-6.24.19-10.43-1.34-10.93-2.81-.05-1.61 0-9 0-11.23 1.86 1.33 5.49 1.51 6.82 1.53h2.11c7.68-.17 16.25-1.38 26.18-2.78 12.16-1.72 28-3.67 43.07-4 5.26-.12 10.45 0 15.44.28l1.27.11c2.62.21 8.75.72 9.25 2.81.16 3.98.16 6.86.04 10.73z" fill="#124e91"/><path d="m52.68 148.38h-.53a3.83 3.83 0 0 1 .38-7.62 4 4 0 0 1 .49 0 3.66 3.66 0 0 1 2.5 1.28l.09.1-.74 1.08-.15-.23a2.65 2.65 0 0 0 -1.8-1 2.39 2.39 0 0 0 -2.72 2.28 2.61 2.61 0 0 0 .47 1.93 2.44 2.44 0 0 0 1.66.9h.38a2.48 2.48 0 0 0 1.67-.59l.19-.16.49 1.11-.09.09a3.38 3.38 0 0 1 -2.29.83z" fill="#124e91"/><path d="m59.44 149h-.29a3.83 3.83 0 0 1 -2.61-1.2 3.88 3.88 0 0 1 2.82-6.43h.29a3.82 3.82 0 0 1 -.21 7.63zm0-6.42a2.4 2.4 0 0 0 -2.44 2.42 2.61 2.61 0 0 0 .6 1.94 2.53 2.53 0 1 0 2-4.35z" fill="#124e91"/><path d="m68 149.19-3.83-.1.19-7.4h1.35l-.16 6.2 2.45.11z" fill="#124e91"/><path d="m68.69 149.19v-7.41h1.31v6.2h2.48v1.21z" fill="#124e91"/><path d="m73.26 149.17-.26-7.41 4.49-.15v1.19l-3.14.1.06 1.75 3-.1v1.19l-3 .09.07 2.1 3.22-.11v1.2z" fill="#124e91"/><path d="m82.09 148.85a3.82 3.82 0 0 1 -.26-7.62 3.72 3.72 0 0 1 3 1l.19.17-.87.94-.14-.13a2.51 2.51 0 0 0 -1.86-.79h-.24a2.61 2.61 0 0 0 .46 5.18 2.57 2.57 0 0 0 1.75-.68l-.1-1.3-1.89.15-.09-1.17 3.21-.25.23 3-.07.08a4.16 4.16 0 0 1 -3 1.41z" fill="#124e91"/><path d="m86.85 148.3-.92-7.3 4.45-.56.15 1.18-3.11.39.21 1.73 2.94-.36.15 1.17-2.94.37.22 2.08 3.19-.4.15 1.19z" fill="#124e91"/><path d="m133.32 115.78-.1-5.81h-.53c-.9-.07-1.74-.11-2.5-.11-5.8 0-6.12 2.3-6.13 2.67a1.48 1.48 0 0 0 0 .21v6a80.6 80.6 0 0 0 -19.06-2.74c-7.21 0-14.14 1.38-22.45 4.49l-.44.16v.47c0 .1 1.74 14.05 1.74 14.05s1.38 1.09 2.32 1.72l.85.55c-5.28.48-11.32.86-17.16.86s-11.86-.3-17.1-.82l.84-.55c.95-.63 2.29-1.7 2.35-1.75s1.7-13.92 1.71-14l.05-.47-.44-.16c-8.27-3.13-15.27-4.55-22.45-4.55a80.6 80.6 0 0 0 -19 2.62v-6a1.48 1.48 0 0 0 0-.21c0-.37-.33-2.67-6.13-2.67-.76 0-1.6 0-2.5.11h-.54l-.09 5.81c-5.48 1.23-6.56 2.59-6.56 4.54v.09l.05 3.16c.06 3.3.07 4.54.12 9.15v.06c.24 2.12 2.25 3.34 5.53 3.34a13.94 13.94 0 0 0 1.45-.08 28.76 28.76 0 0 0 5-1.08h.12c9.42-2.75 16.16-3.93 22.54-3.93h1.61s.74 0 1.59.06 1.6.15 1.6.15c1 .1 2 .23 3 .4-.79.44-1.73 1-2.51 1.49-1.67 1.09-3.36 2.45-3.43 2.52v.68s-.1 3-.61 6.52c-.59 4.17-.88 5.91-.89 5.93l-.15.61.61.12a188.37 188.37 0 0 0 34.28 3.38 188.23 188.23 0 0 0 34.28-3.38l.61-.12-.15-.61s-.41-1.75-.89-5.93c-.41-3.55-.61-6.5-.61-6.52v-.68a41.79 41.79 0 0 0 -3.45-2.53c-.79-.51-1.73-1.05-2.51-1.49 1-.17 2-.3 3-.4l1.56-.13c.87-.06 1.64-.08 1.64-.08h1.61c6.38 0 13.12 1.18 22.54 3.93h.12a28.76 28.76 0 0 0 5 1.08 13.94 13.94 0 0 0 1.45.08c3.28 0 5.29-1.21 5.53-3.33v-.06c0-4.61.06-5.85.12-9.15v-3.16-.09c.06-1.95-1.02-3.31-6.44-4.42zm-8.06-3.23c.07-.44 1.09-1.52 4.93-1.52.57 0 1.19 0 1.85.07l.07 4.47c-6.75-1.24-6.82-2.25-6.85-2.68-.01-.14-.01-.24 0-.34zm-117.48-1.47c.66 0 1.28-.07 1.85-.07 3.84 0 4.85 1.08 4.93 1.52v.3c0 .43-.1 1.44-6.85 2.68zm-.57 5.79.55-.1c3.78-.69 5.77-1.34 6.82-2v4.23c-1.22.3-2.47.62-3.72 1-5.15 1.39-5.82 1.41-6.76 1.44h-.18c-.36 0-2.08-.06-2.64-1.1v-.06a.54.54 0 0 1 -.05-.11c-.02-.95.23-2.17 5.98-3.3zm32.45 13a47.77 47.77 0 0 0 -4.8-.23c-6.5 0-13.34 1.18-22.87 4h-.12a27.65 27.65 0 0 1 -4.86 1 11.38 11.38 0 0 1 -1.31.07c-1.52 0-4.09-.29-4.33-2.22 0-4.59-.06-5.83-.12-9.13v-1.55a5.33 5.33 0 0 0 2.69.67h.21c1.15 0 2-.13 7-1.48 1.4-.38 2.79-.73 4.15-1.06a81.22 81.22 0 0 1 19.51-2.77c6.94 0 13.61 1.32 21.6 4.26-.21 1.86-1 8.78-1.5 12.29a55 55 0 0 0 -15.25-3.82zm1.12 4.13c1.29-.84 3.08-1.81 3.72-2.15a58 58 0 0 1 9.88 3c-.46.35-1 .76-1.44 1.05-.94.62-1.81 1.15-2.17 1.36-5.65-.55-10.18-1.18-12.22-1.48a16.6 16.6 0 0 1 2.23-1.78zm61.79 8.88c.36 3 .56 4.48.77 5.44a190.22 190.22 0 0 1 -33.43 3.23 190.22 190.22 0 0 1 -33.43-3.23c.21-1 .41-2.4.77-5.44.31-2.53.52-5 .58-6a239.21 239.21 0 0 0 32.08 2.63 239.21 239.21 0 0 0 32.09-2.6c.05.98.24 3.23.57 5.98zm-3.57-8.88a16.6 16.6 0 0 1 2.23 1.8c-2 .3-6.57.93-12.22 1.48-.36-.21-1.22-.74-2.16-1.36-.44-.29-1-.7-1.45-1.05a58 58 0 0 1 9.88-3c.72.33 2.47 1.3 3.72 2.13zm39.53-10.58c-.06 3.3-.08 4.54-.12 9.13-.24 1.93-2.81 2.22-4.33 2.22a11.26 11.26 0 0 1 -1.31-.07 27.46 27.46 0 0 1 -4.86-1h-.12c-9.53-2.79-16.37-4-22.87-4a47.77 47.77 0 0 0 -4.8.23 55 55 0 0 0 -15.26 3.89c-.53-3.51-1.29-10.43-1.5-12.29 8-2.94 14.66-4.26 21.6-4.26a81.22 81.22 0 0 1 19.55 2.73c1.36.33 2.75.68 4.15 1.06 5 1.35 5.88 1.44 7 1.48h.21a5.35 5.35 0 0 0 2.69-.67zm0-3.24v.06c-.56 1-2.28 1.1-2.64 1.1h-.17c-.94 0-1.62 0-6.76-1.44-1.25-.33-2.5-.65-3.72-1v-4.17c1.05.65 3 1.3 6.82 2l.55.1c5.75 1.11 6 2.35 6 3.21z" fill="#124e91"/></svg>